/* XPM */
static char *result[] = {
/* columns rows colors chars-per-pixel */
"64 64 206 2 ",
"   c #010C02",
".  c #021303",
"X  c #051C05",
"o  c #0A1D05",
"O  c #161A05",
"+  c #241903",
"@  c #291604",
"#  c #371C0A",
"$  c #280A01",
"%  c #072207",
"&  c #092407",
"*  c #062907",
"=  c #092807",
"-  c #062609",
";  c #092609",
":  c #062B0A",
">  c #092B0A",
",  c #182808",
"<  c #06310D",
"1  c #09320C",
"2  c #0D3B0E",
"3  c #12320C",
"4  c #093610",
"5  c #063E16",
"6  c #0B3C11",
"7  c #043411",
"8  c #133412",
"9  c #143B13",
"0  c #1C3B15",
"q  c #222407",
"w  c #353A0B",
"e  c #2E2E0C",
"r  c #470506",
"t  c #53100B",
"y  c #7A1312",
"u  c #690C0C",
"i  c #413706",
"p  c #503F05",
"a  c #692813",
"s  c #762B12",
"d  c #0A4115",
"f  c #074518",
"g  c #094519",
"h  c #0A4C1C",
"j  c #024A1F",
"k  c #1B4319",
"l  c #194619",
"z  c #0A511E",
"x  c #214E1E",
"c  c #20441C",
"v  c #3C430E",
"b  c #2A6600",
"n  c #095A24",
"m  c #075925",
"M  c #064F20",
"N  c #294A27",
"B  c #255322",
"V  c #295825",
"C  c #0A652A",
"Z  c #09682C",
"A  c #0B7332",
"S  c #0B7B36",
"D  c #0B7F38",
"F  c #0B6C30",
"G  c #2C6129",
"H  c #346529",
"J  c #3A7635",
"K  c #2F6830",
"L  c #4B500B",
"P  c #7A5916",
"I  c #6C5910",
"U  c #476825",
"Y  c #4F772C",
"T  c #55782B",
"R  c #4B7F35",
"E  c #767923",
"W  c #4F544F",
"Q  c #8B060B",
"!  c #8F0403",
"~  c #91080C",
"^  c #961212",
"/  c #A30D13",
"(  c #B40D13",
")  c #AB1416",
"_  c #B61413",
"`  c #BF1114",
"'  c #9D3412",
"]  c #8D270F",
"[  c #A32415",
"{  c #BA2717",
"}  c #A73B15",
"|  c #BB3615",
" . c #CB0D15",
".. c #C71417",
"X. c #DB111A",
"o. c #D61417",
"O. c #DA0418",
"+. c #E70D1A",
"@. c #E4111B",
"#. c #ED141A",
"$. c #C7301C",
"%. c #EB271A",
"&. c #E73417",
"*. c #8E4A1A",
"=. c #A85815",
"-. c #A64314",
";. c #8E6A10",
":. c #A87F1E",
">. c #AE5A25",
",. c #B16923",
"<. c #C54518",
"1. c #F3591B",
"2. c #F47B15",
"3. c #F67815",
"4. c #EB7014",
"5. c #CD5122",
"6. c #EB5833",
"7. c #EF5132",
"8. c #DF7A29",
"9. c #EC6C29",
"0. c #EA4950",
"q. c #ED6A70",
"w. c #0B853C",
"e. c #0B893E",
"r. c #07833A",
"t. c #108A3F",
"y. c #238336",
"u. c #45853E",
"i. c #588230",
"p. c #568328",
"a. c #648C34",
"s. c #6A9335",
"d. c #6A9636",
"f. c #719D35",
"g. c #7E9932",
"h. c #63872D",
"j. c #74A235",
"k. c #7CAC38",
"l. c #7FB239",
"z. c #198F41",
"x. c #488D42",
"c. c #4D9245",
"v. c #539E4C",
"b. c #55A24E",
"n. c #58A551",
"m. c #5DAD54",
"M. c #62B156",
"N. c #66BA5C",
"B. c #69BE5E",
"V. c #62B459",
"C. c #7CB551",
"Z. c #7C907F",
"A. c #6AC15F",
"S. c #6CC461",
"D. c #6FCA65",
"F. c #71CC65",
"G. c #939913",
"H. c #B18C1C",
"J. c #8F922A",
"K. c #B48A23",
"L. c #BE8824",
"P. c #B79425",
"I. c #A98222",
"U. c #80B439",
"Y. c #84BC3B",
"T. c #C6971D",
"R. c #D5930D",
"E. c #FC860D",
"W. c #F78413",
"Q. c #F19815",
"!. c #EF9011",
"~. c #D6A21E",
"^. c #FAA90E",
"/. c #F9A412",
"(. c #EEB514",
"). c #EAAF10",
"_. c #C19423",
"`. c #D39D24",
"'. c #D9A331",
"]. c #ECB02A",
"[. c #FCCD03",
"{. c #FAE300",
"}. c #F1C125",
"|. c #F4CE35",
" X c #BAB547",
".X c #CE9743",
"XX c #E4BD5F",
"oX c #DDB767",
"OX c #C9C65C",
"+X c #F5CA45",
"@X c #F9EB5B",
"#X c #F7D570",
"$X c #F4EA6C",
"%X c #829DA2",
"&X c #91B1BA",
"*X c #F79D83",
"=X c #EFCC8D",
"-X c #FAF0A5",
";X c #BBDEF5",
":X c #BCE4F9",
">X c #F9F6CE",
",X c #F8FAE0",
"<X c white",
"1X c #F2F8FD",
"2X c #F3EEE4",
"3X c None",
/* pixels */
"3X3X3X3X3X3X3X3X3X3X3X3X3X3X3X3X3X3X3X3X3X3X3X3X3X3X3X3X3X3X3X. 3X3X3X3X3X3X3X3X3X3X3X3X3X3X3X3X3X3X3X3X3X3X3X3X3X3X3X3X3X3X3X3X",
"3X3X3X3X3X3X3X3X3X3X3X3X3X3X3X3X3X3X3X3X3X3X3X3X3X3X3X3X3X3X. . 3X. 3X3X3X3X3X3X3X3X3X3X3X3X3X3X3X3X3X3X3X3X3X3X3X3X3X3X3X3X3X3X",
"3X3X3X3X3X3X3X3X3X3X3X3X3X3X3X3X3X3X3X3X3X3X3X3X3X3X3X3X3X. 3X. 3X. 3X3X3X3X3X3X3X3X3X3X3X3X3X3X3X3X3X3X3X3X3X3X3X3X3X3X3X3X3X3X",
"3X3X3X3X3X3X3X3X3X3X3X3X3X3X3X3X3X3X3X3X3X3X3X3X3X3X3X3X3X  R.3.3X3X7 4 3X3X3X3X3X3X3X3X3X3X3X3X3X3X3X3X3X3X3X3X3X3X3X3X3X3X3X3X",
"3X3X3X3X3X3X3X3X3X3X3X3X3X3X3X3X3X3X3X3X3X3X3X3X3X3X3X3X3X. !.2./.. 4 < V . . 3X3X3X3X3X3X3X3X3X3X3X3X3X3X3X3X3X3X3X3X3X3X3X3X3X",
"3X3X3X3X3X3X3X3X3X3X3X3X3X3X3X3X3X3X3X3X3X3X3X3X3X3X3X3X. 3X3X. z.4 : 3XS   . . 3X3X3X3X3X3X3X3X3X3X3X3X3X3X3X3X3X3X3X3X3X3X3X3X",
"3X3X3X3X3X3X3X3X3X3X3X3X3X3X3X3X3X3X3X3X3X3X3X. . X 3X3X3X3X. #./ j g z.> . 3X3X3X3X3X3X3X3X3X3X3X3X3X3X3X3X3X3X3X3X3X3X3X3X3X3X",
"3X3X3X3X3X3X3X3X3X3X3X3X3X3X3X3X3X3X3X3X3X3X3XX X . . . . . . > { > ,.*.% . . 3X3X3X3X3X3X3X3X3X3X3X3X3X3X3X3X3X3X3X3X3X3X3X3X3X",
"3X3X3X3X3X3X3X3X3X3X3X3X3X3X3X3X3X3X3X3X3X3X3X3X3X. . v.. 3X. > : ( o.S..   . 3X3X3X3X3X3X3X3X3X3X3X3X3X3X3X3X3X3X3X3X3X3X3X3X3X",
"3X3X3X3X3X3X3X3X3X3X3X3X3X3X3X3X3X3X3X3X3X3X3X3X3X< 4 . > 1 . & ~ 5.6.o.. . . 3X3X3X3X3X3X3X3X3X3X3X3X3X3X3X3X3X3X3X3X3X3X3X3X3X",
"3X3X3X3X3X3X3X3X3X3X3X3X3X3X3X3X3X3X3X3X3X3X3X3XX > : r.g & 3 > ' / _ [   X o w.. 3X3X3X3X3X3X3X3X3X3X3X3X3X3X3X3X3X3X3X3X3X3X3X",
"b b b b b b b b b b b b b b b b b b b b b b b b b b b b b b b b b b b b b b b b b b b b b b b b b b b b b b b b b b b b b b b b ",
"b b b b b b b b b b b b b b b b b b b b b b b b b b b b b b b b b b b b b b b b b b b b b b b b b b b b b b b b b b b b b b b b ",
"b b b b b b b b b b b b b b b b b b b b b b b b b b b b b b b b b b b b b b b b b b b b b b b b b b b b b b b b b b b b b b b b ",
"b b b b b b b b b b b b b b b b b b b b b b b b b b b b b b b b b b b b b b b b b b b b b b b b b b b b b b b b b b b b b b b b ",
"b b b b b b b b b b b b b b b b b b b b b b b b b b b b b b b b b b b b b b b b b b b b b b b b b b b b b b b b b b b b b b b b ",
"b b b b b b b b b b b b b b b b b b b b b b b b b b b b b b b b b b b b b b b b b b b b b b b b b b b b b b b b b b b b b b b b ",
"b b b b b b b b b b b b b b b b b b b b b b b b b b b b b b b b b b b b b b b b b b b b b b b b b b b b b b b b b b b b b b b b ",
"b b b b b b b b b b b b b b b b b b b b b b b b b b b b b b b b b b b b b b b b b b b b b b b b b b b b b b b b b b b b b b b b ",
"b b b b b b b b b b b b b b b b b b b b b b b b b b b b b b b b b b b b b b b b b b b b b b b b b b b b b b b b b b b b b b b b ",
"b b b b b b b b b b b b b b b b b b b b b b b b b b b b b b b b b b b b b b b b b b b b b b b b b b b b b b b b b b b b b b b b ",
"b b b b b b b b b b b b b b b b b b b b b b b b b b b b b b b b b b b b b b b b b b b b b b b b b b b b b b b b b b b p.b b b b ",
"b b b b b b b b b b b b b b b b b b b b b b b b b b b b b b b b b b b b b b b b b b b b b b b b b b b b b b b b b b b b b b b b ",
"b b b b b b b b b b b b b b b b b p.b b b b b b b b b b b b b b b b b b b b b b b b b b b b b b b b b b b b b b b b b b b b b b ",
"b b b b b b b b b b b b b b b b b b b b b b b b b b b b b b b b b b b b b b b b b b b b b b b b b b b b b b b b b b b b b b b b ",
"b b b b b b b b b b b b b b b b b b b b b b b b b b b b b b b b p.b b b b b b b b b b b b b b b b b b b b b b b b b b b b b b b ",
"b b b b b b b b b b b b b b b b b b b b b b b b b b b b b b b b b b b b b b b b b b b b b b b b b b b b b b b b b b b b b b b b ",
"3X3X3X3X3X3X3X3X3X3X3X3X3X3X3X3X* < v.: o S.X ] { o.<.X 8 3XN.X * * % o.% < < : > &.&.E Y i.f.3X3X3X3X3X3X3X3X3X3X3X3X3X3X3X3X3X",
"3X3X3X3X3X3X3X3X3X3X3X3X3X3X3X3XS ).3.% X . X t } ' 3 X . X C B O % X -   < X a.=X..X.U T 3X. 3X3X3X3X3X3X3X3X3X3X3X3X3X3X3X3X3X",
"3X3X3X3X3X3X3X3X3X3X3X3X3X3X3X3X: f * v.; X . . 3 0 q % % X . . N.$ ; : X : 8 d.s.s.d.T 7 - . 3X3X3X3X3X3X3X3X3X3X3X3X3X3X3X3X3X",
"3X3X3X3X3X3X3X3X3X3X3X3X3X3X3X3X> > 3XX % ; ; % X M.X   o ; .   k : m.: > >   j.f.> j.OXX X . . 3X. 3X3X3X3X3X3X3X3X3X3X3X3X3X3X",
"3X3X3X3X3X3X3X3X3X3X3X3X3X3X% % % % X X > Q.J.X A e.X   > > % +XW.> - % z.X U.l.j.. W.l.i.0 . . . 3X3X3X3X3X3X3X3X3X3X3X3X3X3X3X",
"3X3X3X3X3X3X3X3X3X3X3X3X3X3X% X X X X o X X c.> @.@.. X : - L p ;.% S.< < '.; 3 : +X#X- V.. . . . . 3X3X3X3X3X3X3X3X3X3X3X3X3X3X",
"3X3X3X3X3X3X3X3X3X3X3X3X3X3X3X3X% X - > ; x 0 <X% X ;X< - : j <     ^ X a O . X X X X % L % .   .   3X3X3X3X3X3X3X3X3X3X3X3X3X3X",
"3X3X3X3X3X3X3X3X3X3X3X3X3X3X3X3X% X ~.K.>X0 L.@.X X ^.A.: < % . . . o.Q _.w u ; X M C - X . . . . 3X3X3X3X3X3X3X3X3X3X3X3X3X3X3X",
"3X3X3X3X3X3X3X3X3X3X3X3X3XY.l.j.d.X [ 1 T.> _.X <X^.< 1.u.w.3XS.. > : . oX@ y F > X % > ; z.: > . 3X3X3X3X3X3X3X3X3X3X3X3X3X3X3X",
"3X3X3X3X3X3X3X3X3X3X3X3X3XU.k.`.s. .% ; 3 O X . X {.<   < F.3X. > % ] ..#.+.D.; o ; . $.r.A.> * 3X3X3X3X3X3X3X3X3X3X3X3X3X3X3X3X",
"3X3X3X3X3X3X3X3X3X3X3X; 3X3X3Xd.a.%.! : X X X . . X :Xb.. F.. v.>   Q ` #.#.@.+./ . . s g u.> < 3X3X3X3X. . 3X3X3X3X3X3X3X3X3X3X",
"3X3X3X3X3X3X3X3X3X- ; 3X< > % j.J.%.1...6 X % . . X @.&X  . . < > > ) -._ | l 7 $.P . =.r < . . . 3X3X. . . . 3X3X3X3X3X3X3X3X3X",
"3X3X3X3X3X3X3X3X3X> ; ; : : k. XT U U H M X X n.  % x @.F.. . . : N.{ z./ o D . . i O X t . . . X X X . . .   3X3X3X3X3X3X3X3X3X",
"3X3X3X3X3X3X3X3X3X3X3X& : r.J.f.y.; Y Y - X N % % X w.g o X   . ,X;.;.- 2 X   w.R.|.@X}.% % & < X 2 . . . . . 3X3X3X3X3X3X3X3X3X",
"3X3X3X3X3X3X3X3X3X3X3X- S.% * B.S.X a.a.X m C % u.z.W.3.o ; O ).w :   ; !.E.. . T.(.}.(.e.D % + Q.. w.: S 3X3X3X3X3X3X3X3X3X3X3X",
"3X3X3X3X3X3X3X3X3Xz.D K ; > > & B.< X X S.X A Z * & % X . . . 2 q 6 X i P.I w.8 '.H.H.I.- & g > W.% ; X . 3X. 3X3X3X3X3X3X3X3X3X",
"3X3X3X3X3X3X3X3X3X< > ; % > u.X > . X J X < : % % A X c.X . . X X 0 - ; S X o X 7 1 % * : z.> 4 . % > 1 w.> 3X3X3X3X3X3X3X3X3X3X",
"3X3X3X3X3X3X1 > > ) : - h X X ; ; S.. x.X X , ) < % .   X X F.X X X w.; g X X X . X o > > 4 V 4 2 % w.: > 1 . 3X3X. 3X3X3X3X3X3X",
"3X3X3X3X3X3X3X> > > ' - u B - X % X X n.X & > =., >.'.X . X % ; V z.X % - N.. S o X 9 _.w.- 4 4 X X X 3X. . .   . 3X3X3X3X3X3X3X",
"3X3X3X3X3X3X> : > ^ 6.%.; V m., 9 S.X { B.n.V ,  .#.z.. > . 9 W.K 0 4 ; ; . X   X O o j $X_.X   O . e # X . . . . . . 3X3X3X3X3X",
"3X3X3X3X3X3X3X1 : ~ ` o.q F.; O.} F.< P.- X X ~ 9.7.+.o < q 3X2.>X- D.F X X . . D.V + - S X :.X X y P 5.a 3XD 3X3X. . 3X3X3X3X3X",
"3X3X3X3X3X3X3X3X9 [ Q Q n Z @.- 8.o X ,.r D.J -.{ %._ - % X : ; z.A F.5 X X X   S.V.e.b.1 : > . X . X.n.; > ; . . 3X3X3X3X3X3X3X",
"3X3X3X3X3X3X3Xw.% V.o x.: <X> S o L., : r 5 > ; / Q : e.: % % 8 . ; w.8 Z.u &.H Y T y.> : w.. .   | 6.#.4 > > < % ; 3X3X3X3X3X3X",
"3X3X> > 3X3Xm.l X X G.X @.> & % OX|.@X].X 3X. . C . X : > e.X . 9 : 7 a.oX+.( U Y i.s.S.1 1 1 X ] ~ ` ( g N.< % % ; - : 3X3X3X3X",
"3X2 > x.c.: ; X e.: X +.E.e.; X _.(.}.~.N . X . X . D.< < A.: . . . 7 J.s.a.`.U < + ; % % < X . X ) ~ # X : D X % % o w.1 > < 3X",
"F.F.S.B g > D.X A.X %X;X& 1 & % =X2XK.I & X X X % < K.S.1 < -X-   . k. Xf.o f.h.X X % /.[.* ;X<X@.z.m - - X % % @ ; ; > > 3X3X3X",
"3X< > F.> c.& W.[.> @.x.: ; > k % % X X X @ X X X ,XC.1 < N.- & 3X. U.k.% J z.k.j.% 4.% * - n > W - m z.X : X % X : e.A : 1 < 3X",
"3X1 > 3X> 3X3X4.; ; ;XJ > ;X% % % 9 w.> X X % X , w > 1 < X < 3XX X X 5 > X . . h % o ; =.* - z @.; % ; : 2.- % & > 3Xd c.4 1 3X",
"3X3X3X> 3X3X3X3X: 3X+.@.q.3X; h k S.X > & X Q.; $X, * 1 < 1 % w.X X X Z 5 X . . c.. ; m.l X ;X1X5 X - A u.2.L % % X > 1 e.S.3X3X",
"3X3X3X3X3X3X3X3X3Xz.1 S.1 3X3XA > & n X & & Q.d > > > > > S.X % X   X f m X . % 5 X : > X 0.X 1 > % ; < > < < & ; 3X> 3X3X3X3X3X",
"3X3X3X3X3X3X3X3X3X7 1 4 F D 3Xx o 1 1 > & & G m.> d : % 3X; > ; o @ < X - . 6 . % % % ..+.< b.D - % o > n.< 1 % X X X 3X3X3X3X3X",
"3X3X3X3X3X3X3X3X3X1 1 4 < 3X3X3Xo < 3X; % : S.: w.< < o o N.w.4 z.% z.3X% 1 & % % > > < S.h 1 3X3X% X X 1 3X& % 3X% X 3X3X3X3X3X",
"3X3X3X3X3X3X3X3X3X3X< 3X3X3X3X3X3X< > ; % % 3X3X3X< < % > * > * % S.% 3X. % & - H ; w.. X . X . ; % X X X 3X3X; 3XX 3X3X3X3X3X3X",
"3X3X3X3X3X3X3X3X3X3X3X3X3X3X3X3X3X3X1 > ; 3XX 3X3X> % o X > > x S.w.4 3X3X> w.> x > > 3X. . 3X3X3X% X 3X3X3X3X3X3X3X3X3X3X3X3X3X",
"3X3X3X3X3X3X3X3X3X3X3X3X3X3X3X3X3X3X3X> ; 3X3X3X3X> ; 3Xo < < w.1 3X3X3X3X> 1 d F.3X* 3X3X3X3X3X- 3XX 3X3X3X3X3X3X3X3X3X3X3X3X3X",
"3X3X3X3X3X3X3X3X3X3X3X3X3X3X3X3X3X3X3X3X3X3X3X3X3X3X3X3X3X3X3X3X2 3X3X3X3X3X3X3X< 5 1 3X3X3X3X3X3X3X3X3X3X3X3X3X3X3X3X3X3X3X3X3X",
"3X3X3X3X3X3X3X3X3X3X3X3X3X3X3X3X3X3X3X3X3X3X3X3X3X3X3X3X3X3X3X3X3X3X3X3X3X3X3X1 2 3X3X3X3X3X3X3X3X3X3X3X3X3X3X3X3X3X3X3X3X3X3X3X"
};
