/* XPM */
static char *result[] = {
/* columns rows colors chars-per-pixel */
"64 64 223 2 ",
"   c #280000",
".  c #3A0000",
"X  c #082500",
"o  c #143701",
"O  c #112E00",
"+  c #490000",
"@  c #214203",
"#  c #2A4C02",
"$  c #254A04",
"%  c #2D5102",
"&  c #345503",
"*  c #365C04",
"=  c #3A5D03",
"-  c #3B5D0A",
";  c #3A5506",
":  c #3E6205",
">  c #3F6309",
",  c #2D5A27",
"<  c #415506",
"1  c #436504",
"2  c #496A06",
"3  c #466C0D",
"4  c #46690A",
"5  c #4D7205",
"6  c #4D730C",
"7  c #46700D",
"8  c #527306",
"9  c #547B07",
"0  c #5A7C06",
"q  c #52760B",
"w  c #547A0C",
"e  c #5A7D0B",
"r  c #466A12",
"t  c #4C6C14",
"y  c #486C18",
"u  c #4D7312",
"i  c #4F7B1B",
"p  c #517510",
"a  c #557C12",
"s  c #5A7C12",
"d  c #5B7E19",
"f  c #597816",
"g  c #445925",
"h  c #437831",
"j  c #64743D",
"k  c #990A0A",
"l  c #AD0801",
"z  c #E71B11",
"x  c #E61C0B",
"c  c #DF2714",
"v  c #E5200D",
"b  c #DC392B",
"n  c #826924",
"m  c #E13C5B",
"M  c #9A6577",
"N  c #C74F4C",
"B  c #5E820D",
"V  c #5C850A",
"C  c #5C8212",
"Z  c #5D841A",
"A  c #5E881B",
"S  c #598512",
"D  c #61830D",
"F  c #648A0C",
"G  c #6B8B0C",
"H  c #6C8805",
"J  c #6E920C",
"K  c #6F950A",
"L  c #75930D",
"P  c #759A0D",
"I  c #7B9C0D",
"U  c #749A05",
"Y  c #628513",
"T  c #648A14",
"R  c #698D13",
"E  c #648C1A",
"W  c #678717",
"Q  c #6D9313",
"!  c #6C931C",
"~  c #6A9815",
"^  c #739513",
"/  c #759A13",
"(  c #7A9D13",
")  c #73961A",
"_  c #759C1A",
"`  c #7B9E1C",
"'  c #789711",
"]  c #738C07",
"[  c #7EA30B",
"{  c #7CA114",
"}  c #7CA21B",
"|  c #7DA91C",
" . c #688825",
".. c #6D9322",
"X. c #6F912E",
"o. c #759B23",
"O. c #7C9E24",
"+. c #789927",
"@. c #789335",
"#. c #708835",
"$. c #7DA324",
"%. c #7DA22B",
"&. c #799543",
"*. c #788857",
"=. c #869F0C",
"-. c #82A40D",
";. c #87A70E",
":. c #91AC0E",
">. c #82A514",
",. c #85AA14",
"<. c #8BAC15",
"1. c #83A41A",
"2. c #83AA1B",
"3. c #8BAD1A",
"4. c #88A617",
"5. c #8CB21C",
"6. c #88B216",
"7. c #92B415",
"8. c #92B31B",
"9. c #93B91C",
"0. c #9ABD1D",
"q. c #99B815",
"w. c #839E2D",
"e. c #84A522",
"r. c #86AB23",
"t. c #82A529",
"y. c #85AB2A",
"u. c #8BAD26",
"i. c #8CB223",
"p. c #8DB12A",
"a. c #93B523",
"s. c #95BB23",
"d. c #9BBC23",
"f. c #94B52B",
"g. c #96BB2A",
"h. c #9ABC2B",
"j. c #9BB623",
"k. c #88AB31",
"l. c #96BA32",
"z. c #9CBD35",
"x. c #96BA3C",
"c. c #8EB636",
"v. c #A2BE37",
"b. c #B7BC3C",
"n. c #C0BC3C",
"m. c #9AC21F",
"M. c #A9C818",
"N. c #B8CD1A",
"B. c #9DC123",
"V. c #9DC12B",
"C. c #9EC133",
"Z. c #9DC338",
"A. c #A2C425",
"S. c #ABC924",
"D. c #A3C52B",
"F. c #AAC52C",
"G. c #A6C82C",
"H. c #ABCA2C",
"J. c #A3C334",
"K. c #ACCA34",
"L. c #A4C43C",
"P. c #A6CA3C",
"I. c #ACCB3B",
"U. c #A6C936",
"Y. c #B3CD35",
"T. c #B2CD3B",
"R. c #B9CF3D",
"E. c #BCD134",
"W. c #B7D23C",
"Q. c #B1CC21",
"!. c #839844",
"~. c #9CB84B",
"^. c #8EA65B",
"/. c #97A95F",
"(. c #9BB457",
"). c #A1BD4A",
"_. c #9DB664",
"`. c #94A36E",
"'. c #A0B668",
"]. c #A7BB76",
"[. c #9FC547",
"{. c #ACCB44",
"}. c #AAC94A",
"|. c #B2CD44",
" X c #BACF45",
".X c #BCD34D",
"XX c #B9D247",
"oX c #AACA54",
"OX c #ABC857",
"+X c #B1CD5C",
"@X c #B1CE53",
"#X c #BCD356",
"$X c #B5D15F",
"%X c #BBD35B",
"&X c #ADD357",
"*X c #B4CD65",
"=X c #BBD565",
"-X c #B8D366",
";X c #BAD276",
":X c #B2C87B",
">X c #C2D55A",
",X c #C4D964",
"<X c #C7D967",
"1X c #CADC7B",
"2X c #C3D873",
"3X c #EA3484",
"4X c #9FB981",
"5X c #BBCE8C",
"6X c #BDC7A3",
"7X c #CADB87",
"8X c #D0DF88",
"9X c #CDDD97",
"0X c #D8E495",
"qX c #D2E28A",
"wX c #E0E897",
"eX c #C3CDA6",
"rX c #CDDAA5",
"tX c #D2DDB1",
"yX c #DBE6A5",
"uX c #E4E9AB",
"iX c #E3ECB4",
"pX c #E1EAB7",
"aX c None",
/* pixels */
"aXaXaXaXaXaXaXaXaXaXaXaXaXaXaXaXaXaXaXaXaXaXaXaXaXaXaXaX*XA.G.V.&XaXaXaXaXaXaXaXaXaXaXaXaXaXaXaXaXaXaXaXaXaXaXaXaXaXaXaXaXaXaXaX",
"aXaXaXaXaXaXaXaXaXaXaXaXaXaXaXaXaXaXaXaXaXaXaXaXaXaXaX}.I.I.i.g.p.,.aXaXaXaXaXaXaXaXaXaXaXaXaXaXaXaXaXaXaXaXaXaXaXaXaXaXaXaXaXaX",
"aXaXaXaXaXaXaXaXaXaXaXaXaXaXaXaXaXaXaXaXaXaXaXaXaXaX;XZ.V..XU.k.1.i.r.aXaXaXaXaXaXaXaXaXaXaXaXaXaXaXaXaXaXaXaXaXaXaXaXaXaXaXaXaX",
"aXaXaXaXaXaXaXaXaXaXaXaXaXaXaXaXaXaXaXaXaXaXaXaXaXaXU.U.K.C.x.: $ V B } aXaXaXaXaXaXaXaXaXaXaXaXaXaXaXaXaXaXaXaXaXaXaXaXaXaXaXaX",
"aXaXaXaXaXaXaXaXaXaXaXaXaXaXaXaXaXaXaXaXaXaXaXaX^.{.I.C.L.O.o X 7 A T ! ) _.aXaXaXaXaXaXaXaXaXaXaXaXaXaXaXaXaXaXaXaXaXaXaXaXaXaX",
"aXaXaXaXaXaXaXaXaXaXaXaXaXaXaXaXaXaXaXaXaXaXaXaXaXu ) g.C X aX, ! C.}.g.2.p.k.aXaXaXaXaXaXaXaXaXaXaXaXaXaXaXaXaXaXaXaXaXaXaXaXaX",
"aXaXaXaXaXaXaXaXaXaXaXaXaXaXaXaXaXaXaXaXaXaXaXaXaXc.4Xh I.Z.[.}.I.h.A.{ y.l.Q 5XaXaXaXaXaXaXaXaXaXaXaXaXaXaXaXaXaXaXaXaXaXaXaXaX",
"aXaXaXaXaXaXaXaXaXaXaXaXaXaXaXaXaXaXaXaXaXaXaXaX&XZ.&X&X&.2X-X@XJ.:.q.-.F V $._.aXaXaXaXaXaXaXaXaXaXaXaXaXaXaXaXaXaXaXaXaXaXaXaX",
"aXaXaXaXaXaXaXaXaXaXaXaXaXaXaXaXaXaXaXaXaXaXaXaX[.v.$X;XOX-X+X{.j.4.d.7.R $.T :XaXaXaXaXaXaXaXaXaXaXaXaXaXaXaXaXaXaXaXaXaXaXaXaX",
"aXaXaXaXaXaXaXaXaXaXaXaXaXaXaXaXaXaXaXaXaXaXaXaXaXp.oX+XoXOXz.h.s.<.8.9./ ! ! aXaXaXaX8X0XpXaXaXaXaXaXaXaXaXaXaXaXaXaXaXaXaXaXaX",
"aXaXaXaXaXaXaXaXaXaXaXaXaXaXaXaXaXaXaXaXaXaXaXaXaX:Xz.K.J.v.F.n 2.5.8.7.E 5 ].aX7X-XoXz.{.2XaXaXaXaXaXaXaXaXaXaXaXaXaXaXaXaXaXaX",
"aXaXaXaXaXaXaXaXaXaX%XH.S.pXaXaXaXaXaXaXaXaXaXaXaXaXtXD.b.b.8.3.5.>.3.4.w R S ~ C w ! r.{ ( { L.#XpXaXaXaXaXaXaXaXaXaXaXaXaXaXaX",
"aXaXaXaXaXaXaX1XI.D.9.B.{ A ..pXaXaXaXaXaXaXaXaXaXaXaXaXh.s.8.<.4.>.L J E B u A A A ..T } V R ~ / 9.D.Y.8XaXaXaXaXaXaXaXaXaXaXaX",
"aXaXaX2X}.T. XT.Y.9./ I 1.F u u ,XaXaXaXaXaXaXaXaXaXaXaXaXaXv.<.>.1.| { } ! S A E A E } 2 S r ! } ' a.5.A.I..XaXaXaXaXaXaXaXaXaX",
"aXaX5.aXaXE.Y.E.6.' ' I aXaXy.Z w i.aXaXaXaXaXaXaXaXaXaXaXaXaXaXaX5.V.B.y.S r.~ } ~ $.| [ J & $ @ # e ).5.3.V.d.T.uXaXaXaXaXaXaX",
"aXd.aXaXaXi.<.F.G aXC ^ aXaXaXt.7 3 ! aXaXaXaXaXaXaXaXaXaXaX1Xm.~ T > $.6.6.| 6.! $.| } B.} : % 4 & - 1 w.aX*Xu.,.A.F.%XaXaXaXaX",
"aXaXaXaXaXQ s.W.L aXu aXaXaXaXaXr.f p O.s.aXaXaXaXaXaXY.a.5.A ! 7 Z eXaXaX-Xs.5.5.3.5.Q 4.w w 1 1 4 1 & w O.aXaXaXI.K.F.F.%XaXaX",
"aXaXaXaXaX' -.- 2.aXT aXaXaXaXaXaXl.T T T S i $.2.A a a 6 E :XaXaXaXaXaXaX7XaX7X~./ Q 9 9 D e f e w q d B ^ Y aX1XS.d.5./ ^ aXaX",
"aXaXaXaXaXaXaXf 3 / 4 aXaXaXaXaXaXaX8X_ 6 - : * d (.aXaXaXaXaXaXaXaXaXaX|.~.aXaXaXaXaXt.W F D q e 8 W F F 4.G.7.0.q.8.j.8.4.aXaX",
"aXaXaXaXaXaXaXaX=Xd.aX=XaXaXaXaXaXaXaXaX9X7XaXaXaXaXaXaXaXaXaXaX0X7.D g aX2 >.^ R aXaXaXtX3.~  .W ^ 1.h.A.,.[ =.<.d.a.).aXaXaXaX",
"aXaXaXaXaXaXaXaXaXaXaXaXaXaXaXaXaXaXaXaXaXaXaXaXaXaXaXaXaXaXaXaXaXaXaX#X=.= +.` 1./ @.aXaXaXh.i.I H.<.9.m.6.0./ 2 t ].aXaXaXaXaX",
"aXaXaXaXaXaXaXaXaXaXaXaXaXaXaXaXaXaXaXaXaXaXaXaXaXaXaXaXaXaXaXaXaX<.B *.aXh.G ,.` L ^ e aXaXB.i.s.B.B.B.) - ; 1 t e ; aXaXaXaXaX",
"aXaXaXaXaXaXaXaXaXaXM aXaXaXaXaXaXaXaXaXaXaXaXaXaXaXaXaXaXaXaXaXaXaXaXaXaX1.3.:.H W :.L B } 6.5.;.F w 6 5 5 R w f e & #.aXaXaXaX",
"aXaXaXaXaXaXaXaXm l +   k aXaXaXaXaXaXaXaXaXaXaXaXaXaXaXaXaXaXaXaXaXaXaX0.R R w H =.] ;.1.| T F V C ^ g.R 1.R D R 8 0 W aXaXaXaX",
"aXaXaXaXaXaXaXaXl N . 3X  aXaXaXaXaXaXaXaXaXaXaXaXaXaXaXaXaXaXaXaXaX<X-XaXaXaXaXaX0XK.s.r.<.-.2.1.5.3.{ I >.e.` e L W G aXaXaXaX",
"aXaXaXaXaXaXaXaXz z x z c aXaXaXaXaXaXaXaXaXaXaXaXaXaXaXaXaXaXaXaXaXaXaXaXaXaXaX<X X.XA.H.a.d.` ,.8.>.r./ 3.3.P 1.8 0 Y eXaXaXaX",
"aXaXaXaXaXaXaXaXaXc v b aXaXaXaXaXaXaXaXaXaXaXaXaXaXaXaXaXaXaXaXaXaXaXaXaXaXaX1X@X.X|.U.a.I.t.B.i.i.g.{ i.( ! ,.1.w s 2 !.aXaXaX",
"aXaXaXaXaXaXaXaXaXaXaXaXaXaXaXaXaXaXaXaXaXaXaXaXaXaXaXaXaXaXaXaXaXaXaXaXaXaXaX+XoX.XP.U.Z.g.s.D.%.$.V.t.r.r.%.$.O.W e e !.aXaXaX",
"aXaXaXaXaXaXaXaXaXaXaXaXaXaXaXaXaXaXaXaXaXaXaXaXaXaXaXaXaXaXaXaXaXaXaXaXaXaXaXI.%XJ.|.d.I.z.J.` g.$.t.o.+.y.| y.$.p.t.8 X.aXaXaX",
"aXaXaXaXaXaXaXaXaXaXaXaXaXaXaXaXaXaXaXaXaXaXaXaXaXaXaXaXaXaXaXaXaXaXaXaXaXaX>X.X,X>XXX>X|.V.3.d.l.l.} p.o...y.u E 1.a ..+.eXaXaX",
"aXaXaXaXaXaXaXaXaXaXaXaXaXaXaXaXaXaXaXaXaXaXaXaXaXaXaXaXaXaXaXaXaXaXaXaXaXaX<X,X#X,X.XT.J.D.K.I.d.I.` p.f.f.p...O.e.W ..!.aXaXaX",
"aXaXaXaXaXaXaXaXaXaXaXaXaXaXaXaXaXaXaXaXaXaXaXaXaXaXaXaXaXaXaXaXaXaXaXaXaXiX{.}.P.J.|.L.I.z.{.e.f.) J.u.K.f.k.O...a X.d #.aXaXaX",
"aXaXaXaXaXaXaXaXaXaXaXaXaXaXaXaXaXaXaXaXaXaXaXaXaXaXaXaXaXaXaXaXaXaXaXaXaXaX%XR.S.K.v.g.L.z.=.e.r.a.t.w.{.f.e.! +.d w w `.aXaXaX",
"aXaXaXaXaXaXaXaXaXaXaXaXaXaXaXaXaXaXaXaXaXaXaXaXaXaXaXaXaXaXaXaXaXaXaXyXE.M.M.Q.0.G.D.j./ >.h.J.h.j.e.4.1.4.F.i.d Z < s aXaXaXaX",
"aXaXaXaXaXaXaXaXaXaXaXaXaXaXaXaXaXaXaXaXaXaXaXaXaXaXaXaXaXaXaXiXE.N.M.i.<.~ } 5.U H 1.j.3.4.( 3.<.q.4.R W a.O.4.Q 8 t  .aXaXaXaX",
"aXaXaXaXaXaXaXaXaXaXaXaXaXaXaXaXaXaXaXaXaXaXaXaXaXaXaXaXaXuXE.7.( $.` 6 T w C C e.>.a.7.j.>.^ ( ,.8.>.8.4.' a.G ' D 9 _.aXaXaXaX",
"aXaXaXaXaXaXaXaXaXaXaXaXaXaXaXaXaXaXaXaXaXaXaXaXaXaXaXaXaX0XH.i.> aX5XaXrXrXaXc.w D ' ' ( ^ J / 3.8.4.>.3.=.^ ' w 8 /.aXaXaXaXaX",
"aXaXaXaXaXaXaXaXaXaXaXaXaXaXaXaXaXaXaXaXaXaXaXaXaXaXaXaXaXaXXX0.F r aXaXaXaXaXaXK.3.0 e ^ ' Q 0 w ( =.5.3.( G Y e !.aXaXaXaXaXaX",
"aXaXaXaXaXaXaXaXaXaXaXaXaXaXaXaXaXaXaXaXaXaXaXaXaXaXaXaXaXaXaXH.9.! 9XaXaXaXaXaXaX+X( = @ 1 : T e W e.>.G G w s aXaXaXaXaXaXaXaX",
"aXaXaXaXaXaXaXaXaXaXaXaXaXaXaXaXaXaXaXaXaXaXaXaXaXaXaXaXaXaXaXaXg.w @ aXaXaXaXaXaXaXOXP d O O O - ; =  .& 2 aXaXaXaXaXaXaXaXaXaX",
"aXaXaXaXaXaXaXaXaXaXaXaXaXaXaXaXaXaXaXaXaXaXaXaXaXaXaXaXaXaXaXaXaX[ 5 @.aXaXaXaXaXaXaX+X) C # % o O j aXaXaXaXaXaXaXaXaXaXaXaXaX",
"aXaXaXaXaXaXaXaXaXaXaXaXaXaXaXaXaXaXaXaXaXaXaXaXaXaXaXaXaXaXaXaXaX8X5.a aXaXaXaXaXaXaXaXs.} 6 o g aXaXaXaXaXaXaXaXaXaXaXaXaXaXaX",
"aXaXaXaXaXaXaXaXaXaXaXaXaXaXaXaXaXaXaXaXaXaXaXaXaXaXaXaXaXaXaXaXaXaXB.J X.aXaXaXaXaXaXwXH.i.w # aXaXaXaXaXaXaXaXaXaXaXaXaXaXaXaX",
"aXaXaXaXaXaXaXaXaXaXaXaXaXaXaXaXaXaXaXaXaXaXaXaXaXaXaXaXaXaXaXaXaXaX0X| ..aXaXaXaXaXaXqXH.,.S 6XaXaXaXaXaXaXaXaXaXaXaXaXaXaXaXaX",
"aXaXaXaXaXaXaXaXaXaXaXaXaXaXaXaXaXaXaXaXaXaXaXaXaXaXaXaXaXaXaXaXaXaXaXK.} u aXaXaXaXaX8XA.Q C aXaXaXaXaXaXaXaXaXaXaXaXaXaXaXaXaX",
"aXaXaXaXaXaXaXaXaXaXaXaXaXaXaXaXaXaXaXaXaXaXaXaXaXaXaXaXaX;X=X=X=X;X9XqX6.w X.aXaXaXaX.Xi.w aXaXaXaXaXaXaXaXaXaXaXaXaXaXaXaXaXaX",
"aXaXaXaXaXaXaXaXaXaXaXaXaXaXaXaXaXaXaXaXaXaXaXaXaXaXaXH.A.m.6.K Q V E w 6 [ u aXaXaXaXH.6.r aXaXaXaXaXaXaXaXaXaXaXaXaXaXaXaXaXaX",
"aXaXaXaXaXaXaXaXaXaXaXaXaXaXaXaXaXaXaXaXaXaXaXaXaXaXH.D.B.9.) V 2 w u y y S S /.aXaXyXH.i.2 % aXaXaXaXaXaXaXaXaXaXaXaXaXaXaXaXaX",
"aXaXaXaXaXaXaXaXaXaXaXaXaXaXaXaXaXaXaXaXaXaXaXaXaXY.H.G.U aXaXaXaXaXB 6 7 q 5 aXaXaXaX=X,.-.q * aXaXaXaXaXaXaXaXaXaXaXaXaXaXaXaX",
"aXaXaXaXaXaXaXaXaXaXaXaXaXaXaXaXaXaXaXaXaXaXaXaXR.T.'.aXaXaXaXaXaXaXaXaX0 a 1 aXaXaXaXaXaXoXQ a * aXaXaXaXaXaXaXaXaXaXaXaXaXaXaX",
"aXaXaXaXaXaXaXaXaXaXaXaXaXaXaXaXaXaXaXaXaXaXaXaX%XaXaXaXaXaXaXaXaXaXaXaXaXaXaXaXaXaXaXaXaXaXaX_ B r aXaXaXaXaXaXaXaXaXaXaXaXaXaX",
"aXaXaXaXaXaXaXaXaXaXaXaXaXaXaXaXaXaXaXaXaXaXaXaXaXaXaXaXaXaXaXaXaXaXaXaXaXaXaXaXaXaXaXaXaXaXaXaXF w 2 aXaXaXaXaXaXaXaXaXaXaXaXaX",
"aXaXaXaXaXaXaXaXaXaXaXaXaXaXaXaXaXaXaXaXaXaXaXaXaXaXaXaXaXaXaXaXaXaXaXaXaXaXaXaXaXaXaXaXaXaXaXaXaX9 5 a ~.Q $.aXaXaXaXaXaXaXaXaX",
"aXaXaXaXaXaXaXaXaXaXaXaXaXaXaXaXaXaXaXaXaXaXaXaXaXaXaXaXaXaXaXaXaXaXaXaXaXaXaXaXaXaXaXaXaXaXaXaXaXaXT S 6 { / aXaXaXaXaXaXaXaXaX",
"aXaXaXaXaXaXaXaXaXaXaXaXaXaXaXaXaXaXaXaXaXaXaXaXaXaXaXaXaXaXaXaXaXaXaXaXaXaXaXaXaXaXaXaXaXaXaXaXaXaX3.T ! C q aXaXaXaXaXaXaXaXaX",
"aXaXaXaXaXaXaXaXaXaXaXaXaXaXaXaXaXaXaXaXaXaXaXaXaXaXaXaXaXaXaXaXaXaXaXaXaXaXaXaXaXaXaXaXaXaXaXaXaXaX;X{ R V % aXaXaXaXaXaXaXaXaX",
"aXaXaXaXaXaXaXaXaXaXaXaXaXaXaXaXaXaXaXaXaXaXaXaXaXaXaXaXaXaXaXaXaXaXaXaXaXaXaXaXaXaXaXaXaXaXaXaXaXaXaXp._ B aXaXaXaXaXaXaXaXaXaX",
"aXaXaXaXaXaXaXaXaXaXaXaXaXaXaXaXaXaXaXaXaXaXaXaXaXaXaXaXaXaXaXaXaXaXaXaXaXaXaXaXaXaXaXaXaXaXaXaXaXaXaXs.P C aXaXaXaXaXaXaXaXaXaX",
"aXaXaXaXaXaXaXaXaXaXaXaXaXaXaXaXaXaXaXaXaXaXaXaXaXaXaXaXaXaXaXaXaXaXaXaXaXaXaXaXaXaXaXaXaXaXaXaXaXaXaX6.a.V aXaXaXaXaXaXaXaXaXaX",
"aXaXaXaXaXaXaXaXaXaXaXaXaXaXaXaXaXaXaXaXaXaXaXaXaXaXaXaXaXaXaXaXaXaXaXaXaXaXaXaXaXaXaXaXaXaXaXaXaXaXaXD.9.J aXaXaXaXaXaXaXaXaXaX",
"aXaXaXaXaXaXaXaXaXaXaXaXaXaXaXaXaXaXaXaXaXaXaXaXaXaXaXaXaXaXaXaXaXaXaXaXaXaXaXaXaXaXaXaXaXaXaXaXaXaXW.A.D.F aXaXaXaXaXaXaXaXaXaX",
"aXaXaXaXaXaXaXaXaXaXaXaXaXaXaXaXaXaXaXaXaXaXaXaXaXaXaXaXaXaXaXaXaXaXaXaXaXaXaXaXaXaXaXaXaXaXaXaXaXaXA.B.B.^.aXaXaXaXaXaXaXaXaXaX",
"aXaXaXaXaXaXaXaXaXaXaXaXaXaXaXaXaXaXaXaXaXaXaXaXaXaXaXaXaXaXaXaXaXaXaXaXaXaXaXaXaXaXaXaXaXaXaXaXaX5.m.9.5XaXaXaXaXaXaXaXaXaXaXaX",
"aXaXaXaXaXaXaXaXaXaXaXaXaXaXaXaXaXaXaXaXaXaXaXaXaXaXaXaXaXaXaXaXaXaXaXaXaXaXaXaXaXaXaXaXaXaXaX|.}.).aXaXaXaXaXaXaXaXaXaXaXaXaXaX"
};
