/* XPM */
static char *result[] = {
/* columns rows colors chars-per-pixel */
"64 64 222 2 ",
"   c #380100",
".  c #270101",
"X  c #0A2603",
"o  c #173301",
"O  c #142B03",
"+  c #203A08",
"@  c #4A0100",
"#  c #1C410A",
"$  c #2C4C0B",
"%  c #294808",
"&  c #3C5D06",
"*  c #35560A",
"=  c #3A5C0B",
"-  c #38550B",
";  c #3D5D12",
":  c #305005",
">  c #3E600B",
",  c #315A2B",
"<  c #405F11",
"1  c #43560F",
"2  c #44640C",
"3  c #4B6B0D",
"4  c #476B0E",
"5  c #4E720D",
"6  c #4B7207",
"7  c #51720E",
"8  c #5C7B0D",
"9  c #547B0F",
"0  c #426412",
"q  c #4A6D13",
"w  c #4A6A1B",
"e  c #466916",
"r  c #4E7315",
"t  c #4D721B",
"y  c #467015",
"u  c #537514",
"i  c #557914",
"p  c #5A7C13",
"a  c #567B1A",
"s  c #5A7C1C",
"d  c #547518",
"f  c #506C1D",
"g  c #607F15",
"h  c #46592A",
"j  c #597C21",
"k  c #457734",
"l  c #64733F",
"z  c #981212",
"x  c #AC1005",
"c  c #E71F17",
"v  c #DE2613",
"b  c #E52315",
"n  c #E6221B",
"m  c #DD3628",
"M  c #816929",
"N  c #E03E5B",
"B  c #996576",
"V  c #C6504D",
"C  c #5D8215",
"Z  c #5C821B",
"A  c #5D8619",
"S  c #5F860F",
"D  c #6C870D",
"F  c #6F900E",
"G  c #779A0E",
"H  c #618315",
"J  c #648A14",
"K  c #6B8C15",
"L  c #63851A",
"P  c #64891C",
"I  c #698D1A",
"U  c #6A8619",
"Y  c #6E9316",
"T  c #6D921B",
"R  c #6B9719",
"E  c #749416",
"W  c #749915",
"Q  c #73941B",
"!  c #759B1B",
"~  c #7A9C1B",
"^  c #7B9C15",
"/  c #728B10",
"(  c #7DA215",
")  c #7DA21C",
"_  c #77A01E",
"`  c #5E8521",
"'  c #658B22",
"]  c #6B8E23",
"[  c #678729",
"{  c #6D9323",
"}  c #6D9129",
"|  c #729623",
" . c #769C23",
".. c #7B9E23",
"X. c #769B2A",
"o. c #7B9E2A",
"O. c #6F9032",
"+. c #7C9932",
"@. c #708C34",
"#. c #7CA223",
"$. c #7DA329",
"%. c #7CA822",
"&. c #7EA231",
"*. c #708041",
"=. c #799344",
"-. c #788757",
";. c #859E14",
":. c #81A316",
">. c #83A41C",
",. c #85AB1C",
"<. c #8BAD1D",
"1. c #87A717",
"2. c #90AB16",
"3. c #8BB21D",
"4. c #86B21A",
"5. c #91B31D",
"6. c #98B71C",
"7. c #829D31",
"8. c #82A423",
"9. c #85AB24",
"0. c #8BAD21",
"q. c #82A42B",
"w. c #85AB2A",
"e. c #8AAD2C",
"r. c #8CB323",
"t. c #8CB12A",
"y. c #8BB621",
"u. c #93B424",
"i. c #94BA23",
"p. c #9BBD25",
"a. c #94B52C",
"s. c #95BA2B",
"d. c #9BBD2B",
"f. c #99B629",
"g. c #85A932",
"h. c #8CB532",
"j. c #90B533",
"k. c #96BA33",
"l. c #9CBD35",
"z. c #9BBD39",
"x. c #94BC3B",
"c. c #92AE33",
"v. c #A1BE38",
"b. c #BBBB3E",
"n. c #A1BF2B",
"m. c #A6C71D",
"M. c #9CC125",
"N. c #9CC12B",
"B. c #9EC235",
"V. c #9EC13D",
"C. c #A3C42B",
"Z. c #AAC82D",
"A. c #AAC829",
"S. c #B4CC23",
"D. c #A4C433",
"F. c #A9C431",
"G. c #AAC933",
"H. c #A3C33B",
"J. c #A5C93D",
"K. c #ADCB3C",
"L. c #A8C73B",
"P. c #B3CD36",
"I. c #B2CC3B",
"U. c #B8CE3F",
"Y. c #BBD03A",
"T. c #829746",
"R. c #9EBA4B",
"E. c #96B346",
"W. c #8DA45B",
"Q. c #96AA5B",
"!. c #9CB65C",
"~. c #A0BA4F",
"^. c #9DB566",
"/. c #99AB6F",
"(. c #A9BD78",
"). c #9EC449",
"_. c #A5C544",
"`. c #ACCB45",
"'. c #ACCB4D",
"]. c #A7C74B",
"[. c #B2CC43",
"{. c #B6CD47",
"}. c #BBD24D",
"|. c #B7D245",
" X c #ABC554",
".X c #AECB5B",
"XX c #A9C958",
"oX c #B3CD5D",
"OX c #B0CD54",
"+X c #BAD256",
"@X c #B4D05F",
"#X c #BCD25B",
"$X c #B5D050",
"%X c #ACD258",
"&X c #B3CC65",
"*X c #B5D264",
"=X c #BAD365",
"-X c #BCD567",
";X c #BBD375",
":X c #B0C77A",
">X c #C2D658",
",X c #C5D866",
"<X c #CBDC7C",
"1X c #C5D873",
"2X c #E93783",
"3X c #9EB880",
"4X c #BBCE88",
"5X c #B8CB90",
"6X c #BCC6A2",
"7X c #CDDF8B",
"8X c #C8D985",
"9X c #CBDB98",
"0X c #D3E08D",
"qX c #D9E698",
"wX c #C1CCA5",
"eX c #CED9AC",
"rX c #D1DFAF",
"tX c #DCE8A5",
"yX c #E2E8AB",
"uX c #E3ECB4",
"iX c #E1EDB9",
"pX c None",
/* pixels */
"pXpXpXpXpXpXpXpXpXpXpXpXpXpXpXpXpXpXpXpXpXpXpXpXpXpXpXpXpXpXpX*XN.C.N.*XpXpXpXpXpXpXpXpXpXpXpXpXpXpXpXpXpXpXpXpXpXpXpXpXpXpXpXpX",
"pXpXpXpXpXpXpXpXpXpXpXpXpXpXpXpXpXpXpXpXpXpXpXpXpXpXpXpXpXpX>.a.s.w.I.I.].pXpXpXpXpXpXpXpXpXpXpXpXpXpXpXpXpXpXpXpXpXpXpXpXpXpXpX",
"pXpXpXpXpXpXpXpXpXpXpXpXpXpXpXpXpXpXpXpXpXpXpXpXpXpXpXpXpX9.w.>.g.J.}.N.B.;XpXpXpXpXpXpXpXpXpXpXpXpXpXpXpXpXpXpXpXpXpXpXpXpXpXpX",
"pXpXpXpXpXpXpXpXpXpXpXpXpXpXpXpXpXpXpXpXpXpXpXpXpXpXpXpX~ C A $ = E.B.G.D._.pXpXpXpXpXpXpXpXpXpXpXpXpXpXpXpXpXpXpXpXpXpXpXpXpXpX",
"pXpXpXpXpXpXpXpXpXpXpXpXpXpXpXpXpXpXpXpXpXpXpXpXpXpX^.! T ' ` y X # $.V.B.K.`.W.pXpXpXpXpXpXpXpXpXpXpXpXpXpXpXpXpXpXpXpXpXpXpXpX",
"pXpXpXpXpXpXpXpXpXpXpXpXpXpXpXpXpXpXpXpXpXpXpXpXpXg.h.%.k.].B.| , pXX A s.| t pXpXpXpXpXpXpXpXpXpXpXpXpXpXpXpXpXpXpXpXpXpXpXpXpX",
"pXpXpXpXpXpXpXpXpXpXpXpXpXpXpXpXpXpXpXpXpXpXpXpX5XT j.w._ C.p.L._.).V.J.k 3Xx.pXpXpXpXpXpXpXpXpXpXpXpXpXpXpXpXpXpXpXpXpXpXpXpXpX",
"pXpXpXpXpXpXpXpXpXpXpXpXpXpXpXpXpXpXpXpXpXpXpXpX^.#.C K :.6.2.v.OX-X;X=.@X%Xx.%XpXpXpXpXpXpXpXpXpXpXpXpXpXpXpXpXpXpXpXpXpXpXpXpX",
"pXpXpXpXpXpXpXpXpXpXpXpXpXpXpXpXpXpXpXpXpXpXpXpX(.I  .I u.p.>.f._.oX*XXX;XoXz.).pXpXpXpXpXpXpXpXpXpXpXpXpXpXpXpXpXpXpXpXpXpXpXpX",
"pXpXpXpXpXpXpXpXpXpXpXpXpXpXpXpXpXpXuX0X7XpXpXpXpX} { Q 5.u.<.u.d.z. XXX@X Xj.pXpXpXpXpXpXpXpXpXpXpXpXpXpXpXpXpXpXpXpXpXpXpXpXpX",
"pXpXpXpXpXpXpXpXpXpXpXpXpXpXpXpXpXpX1X`.z.].*X8XpX^.6 P 3.u.t.9.M F.D.D.H.B.:XpXpXpXpXpXpXpXpXpXpXpXpXpXpXpXpXpXpXpXpXpXpXpXpXpX",
"pXpXpXpXpXpXpXpXpXpXpXpXpXpXuX+XH._ ! ( w.] p Z { ' I p >.<.;.0.<.6.b.R.B.rXpXpXpXpXpXpXpXpXpXpXpXpXuXA.G.+XpXpXpXpXpXpXpXpXpXpX",
"pXpXpXpXpXpXpXpXpXpXpX<XP.D.u.! T I i _ ' } ` ` ` t Z A Y E >.,.<.5.f.l.pXpXpXpXpXpXpXpXpXpXpXpXiX{ ` _ d.i.N.`.<XpXpXpXpXpXpXpX",
"pXpXpXpXpXpXpXpXpX}.K.C.0.u.W #.I w Z 5 _ { ' ' Z Z { #.~ _ ~ ,.2.v.pXpXpXpXpXpXpXpXpXpXpXpXpX-Xd y J 8.E ~ i.P.I.|.K.'.1XpXpXpX",
"pXpXpXpXpXpXtXI.d.C.0.r.R.p : + $ * R ( ) %.{ R R %.A %.N.N.r.pXpXpXpXpXpXpXpXpXpXpXpXpXpXpXr.p ` g.pXpX^ E E <.Y.P.I.pXpXr.pXpX",
"pXpXpXpX#XF.C.9.w.&XpX7.2 ; * e * > #.s.%.%.w.{ y.%.y.3.$.e P R d.<XpXpXpXpXpXpXpXpXpXpXpX{ e y w.pXpXpXQ C pX/ F.<.t.pXpXpXd.pX",
"pXpX#XF.F.D.J.pXpXpXq.i - 2 q 2 2 p i >.T r.<.r.u.i.=XpXpXwXZ y { A y.i.I.pXpXpXpXpXpXp.X.d j w.pXpXpXpXpXd pXY I.i.T pXpXpXpXpX",
"pXpX! ~ <.p.A.1XpXL Q p s u i p s p g 9 9 I Q R.8XpX8XpXpXpXpXpXpX(.[ r s a A 9.%.t Z J P P k.pXpXpXpXpXpXL pX>.< :.Q pXpXpXpXpX",
"pXpX1.0.u.5.6.M.5.Z.>.J L U 7 C f H J ' q.pXpXpXpXpXE.[.pXpXpXpXpXpXpXpXpXpXQ.Z ; ; ; u ! 7XpXpXpXpXpXpXpXq ! q j pXpXpXpXpXpXpX",
"pXpXpXpX~.c.p.0.( ( 1.N.n...Q P [ E <.eXpXpXpXI T >.3 pXh H 5.qXpXpXpXpXpXpXpXpXpXpX8X9XpXpXpXpXpXpXpXpX=XpXd.*XpXpXpXpXpXpXpXpX",
"pXpXpXpXpX(.3 w ~ f.<.M.6.,.G.( r.l.pXpXpX=.E 8.~ +.& ^ #XpXpXpXpXpXpXpXpXpXpXpXpXpXpXpXpXpXpXpXpXpXpXpXpXpXpXpXpXpXpXpXpXpXpXpX",
"pXpXpXpXpX1 g f < = ; Q M.p.M.i.e.N.pXpXp Q E ~ >.J C.pX-.p 1.pXpXpXpXpXpXpXpXpXpXpXpXpXpXpXpXpXpXpXpXpXpXpXpXpXpXpXpXpXpXpXpXpX",
"pXpXpXpX@.1 g u i P 7 7 r i J :.y.4.#.p E 2.U D 2.0.8.pXpXpXpXpXpXpXpXpXpXpXpXpXpXpXpXpXpXpXpXpXpXpXpXpXpXB pXpXpXpXpXpXpXpXpXpX",
"pXpXpXpXs 8 7 U H I >.I k.R A C J L >.8.;./ ;.D i K I M.pXpXpXpXpXpXpXpXpXpXpXpXpXpXpXpXpXpXpXpXpXpXpXz   @ x N pXpXpXpXpXpXpXpX",
"pXpXpXpXU L K g ..8.;.~ ) <.<.8.>.( <.w.f.G.qXpXpXpXpXpX&X,XpXpXpXpXpXpXpXpXpXpXpXpXpXpXpXpXpXpXpXpXpX. 2X@ V x pXpXpXpXpXpXpXpX",
"pXpXpXwXL 8 u 8.E <.0.! w.,.r.<...d.t.Z.C.|.}.,XpXpXpXpXpXpXpXpXpXpXpXpXpXpXpXpXpXpXpXpXpXpXpXpXpXpXpXv c b b n pXpXpXpXpXpXpXpX",
"pXpXpXT.q g d ~ ,.] ~ t._ s.t.t.p.w.K.u.H.|.$X'.<XpXpXpXpXpXpXpXpXpXpXpXpXpXpXpXpXpXpXpXpXpXpXpXpXpXpXpXm b m pXpXpXpXpXpXpXpXpX",
"pXpXpXT.p p I $.$.o.9.w.&.N.X.&.B.s.k.V.J.J.$XOXoXpXpXpXpXpXpXpXpXpXpXpXpXpXpXpXpXpXpXpXpXpXpXpXpXpXpXpXpXpXpXpXpXpXpXpXpXpXpXpX",
"pXpXpX@.u q.e.$.q.#.w.X.X.q.o.s.#.B.k.K.a.{.H.+XJ.pXpXpXpXpXpXpXpXpXpXpXpXpXpXpXpXpXpXpXpXpXpXpXpXpXpXpXpXpXpXpXpXpXpXpXpXpXpXpX",
"pXpXwX+.} a 8.' t w.} X.e...k.k.s.r.B.I.>X|.>X,X}.#XpXpXpXpXpXpXpXpXpXpXpXpXpXpXpXpXpXpXpXpXpXpXpXpXpXpXpXpXpXpXpXpXpXpXpXpXpXpX",
"pXpXpXT.} ' 8.o.{ e.j.j.t...K.f.L.L.v.v.I.|.,X+X,X,XpXpXpXpXpXpXpXpXpXpXpXpXpXpXpXpXpXpXpXpXpXpXpXpXpXpXpXpXpXpXpXpXpXpXpXpXpXpX",
"pXpXpX@.g O.d } X.e.k.K.e.D.| a.8.`.l.K._.`.H.J.'.`.yXpXpXpXpXpXpXpXpXpXpXpXpXpXpXpXpXpXpXpXpXpXpXpXpXpXpXpXpXpXpXpXpXpXpXpXpXpX",
"pXpXpX/.p 7 j | ] q.j.{.o.q.u.e.8.~ v.v.a.z.G.Z.U.#XpXpXpXpXpXpXpXpXpXpXpXpXpXpXpXpXpXpXpXpXpXpXpXpXpXpXpXpXpXpXpXpXpXpXpXpXpXpX",
"pXpXpXpXp < [ s u.n.8.>.8.w.f.n.v.d.8.! d.F.F.6.S.m.S.P.yXpXpXpXpXpXpXpXpXpXpXpXpXpXpXpXpXpXpXpXpXpXpXpXpXpXpXpXpXpXpXpXpXpXpXpX",
"pXpXpXpX[ f 3 T 8.8.u.U K 8.5.<.0.~ >.<.a.8.K G r.! R <.r.m.S.Y.uXpXpXpXpXpXpXpXpXpXpXpXpXpXpXpXpXpXpXpXpXpXpXpXpXpXpXpXpXpXpXpX",
"pXpXpXpX^.7 U Q U f.! >.5.>.u.>.~ Q :.p.3.f.;...Z A r J r ..$._ 5.Y.yXpXpXpXpXpXpXpXpXpXpXpXpXpXpXpXpXpXpXpXpXpXpXpXpXpXpXpXpXpX",
"pXpXpXpXpXQ.7 p E Q ^ u.^ <.u.0.Q E E ~ Q E H p c.pXeXeXpX4XpX0 u.Z.qXpXpXpXpXpXpXpXpXpXpXpXpXpXpXpXpXpXpXpXpXpXpXpXpXpXpXpXpXpX",
"pXpXpXpXpXpXT.p g U ~ 0.u.:.^ u p T Q Q p 8 ,.I.pXpXpXpXpXpXe J i.|.pXpXpXpXpXpXpXpXpXpXpXpXpXpXpXpXpXpXpXpXpXpXpXpXpXpXpXpXpXpX",
"pXpXpXpXpXpXpXpXd p K K ^ 8.L p U 2 2 % & ~ oXpXpXpXpXpXpX9X{ 5.G.pXpXpXpXpXpXpXpXpXpXpXpXpXpXpXpXpXpXpXpXpXpXpXpXpXpXpXpXpXpXpX",
"pXpXpXpXpXpXpXpXpXpX3 - [ 1 ; ; o O O s E XXpXpXpXpXpXpXpX% i d.pXpXpXpXpXpXpXpXpXpXpXpXpXpXpXpXpXpXpXpXpXpXpXpXpXpXpXpXpXpXpXpX",
"pXpXpXpXpXpXpXpXpXpXpXpXpXl O + : : Z Q .XpXpXpXpXpXpXpX=.5 ( pXpXpXpXpXpXpXpXpXpXpXpXpXpXpXpXpXpXpXpXpXpXpXpXpXpXpXpXpXpXpXpXpX",
"pXpXpXpXpXpXpXpXpXpXpXpXpXpXpXh o u _ s.pXpXpXpXpXpXpXpXr y.7XpXpXpXpXpXpXpXpXpXpXpXpXpXpXpXpXpXpXpXpXpXpXpXpXpXpXpXpXpXpXpXpXpX",
"pXpXpXpXpXpXpXpXpXpXpXpXpXpXpXpX: d t.G.qXpXpXpXpXpXpXO.Y N.pXpXpXpXpXpXpXpXpXpXpXpXpXpXpXpXpXpXpXpXpXpXpXpXpXpXpXpXpXpXpXpXpXpX",
"pXpXpXpXpXpXpXpXpXpXpXpXpXpXpXpX6XZ 4.Z.0XpXpXpXpXpXpX{ ) qXpXpXpXpXpXpXpXpXpXpXpXpXpXpXpXpXpXpXpXpXpXpXpXpXpXpXpXpXpXpXpXpXpXpX",
"pXpXpXpXpXpXpXpXpXpXpXpXpXpXpXpXpXa R N.<XpXpXpXpXpXt #.J.pXpXpXpXpXpXpXpXpXpXpXpXpXpXpXpXpXpXpXpXpXpXpXpXpXpXpXpXpXpXpXpXpXpXpX",
"pXpXpXpXpXpXpXpXpXpXpXpXpXpXpXpXpXpXp w.>XpXpXpXpXO.i 4.0X7X-X*X=X-X;XpXpXpXpXpXpXpXpXpXpXpXpXpXpXpXpXpXpXpXpXpXpXpXpXpXpXpXpXpX",
"pXpXpXpXpXpXpXpXpXpXpXpXpXpXpXpXpXpXw y.G.pXpXpXpXt ( r i ' J I W <.i.M.P.pXpXpXpXpXpXpXpXpXpXpXpXpXpXpXpXpXpXpXpXpXpXpXpXpXpXpX",
"pXpXpXpXpXpXpXpXpXpXpXpXpXpXpXpXpX: 4 r.A.tXpXpXQ.Z Z w w w i q S R y.M.C.G.pXpXpXpXpXpXpXpXpXpXpXpXpXpXpXpXpXpXpXpXpXpXpXpXpXpX",
"pXpXpXpXpXpXpXpXpXpXpXpXpXpXpXpX= r ( ,.-XpXpXpXpX5 5 y u p pXpXpXpXpXG Z.G.I.pXpXpXpXpXpXpXpXpXpXpXpXpXpXpXpXpXpXpXpXpXpXpXpXpX",
"pXpXpXpXpXpXpXpXpXpXpXpXpXpXpX= p Y .XpXpXpXpXpXpX2 a 8 pXpXpXpXpXpXpXpXpX^.I.Y.pXpXpXpXpXpXpXpXpXpXpXpXpXpXpXpXpXpXpXpXpXpXpXpX",
"pXpXpXpXpXpXpXpXpXpXpXpXpXpXw C  .pXpXpXpXpXpXpXpXpXpXpXpXpXpXpXpXpXpXpXpXpXpX*XpXpXpXpXpXpXpXpXpXpXpXpXpXpXpXpXpXpXpXpXpXpXpXpX",
"pXpXpXpXpXpXpXpXpXpXpXpXpX4 u J pXpXpXpXpXpXpXpXpXpXpXpXpXpXpXpXpXpXpXpXpXpXpXpXpXpXpXpXpXpXpXpXpXpXpXpXpXpXpXpXpXpXpXpXpXpXpXpX",
"pXpXpXpXpXpXpXpXpXo.T R.a 5 i pXpXpXpXpXpXpXpXpXpXpXpXpXpXpXpXpXpXpXpXpXpXpXpXpXpXpXpXpXpXpXpXpXpXpXpXpXpXpXpXpXpXpXpXpXpXpXpXpX",
"pXpXpXpXpXpXpXpXpXW ! i Z L pXpXpXpXpXpXpXpXpXpXpXpXpXpXpXpXpXpXpXpXpXpXpXpXpXpXpXpXpXpXpXpXpXpXpXpXpXpXpXpXpXpXpXpXpXpXpXpXpXpX",
"pXpXpXpXpXpXpXpXpXr A T I 9.pXpXpXpXpXpXpXpXpXpXpXpXpXpXpXpXpXpXpXpXpXpXpXpXpXpXpXpXpXpXpXpXpXpXpXpXpXpXpXpXpXpXpXpXpXpXpXpXpXpX",
"pXpXpXpXpXpXpXpXpX: J J _ ;XpXpXpXpXpXpXpXpXpXpXpXpXpXpXpXpXpXpXpXpXpXpXpXpXpXpXpXpXpXpXpXpXpXpXpXpXpXpXpXpXpXpXpXpXpXpXpXpXpXpX",
"pXpXpXpXpXpXpXpXpXpXC ! t.pXpXpXpXpXpXpXpXpXpXpXpXpXpXpXpXpXpXpXpXpXpXpXpXpXpXpXpXpXpXpXpXpXpXpXpXpXpXpXpXpXpXpXpXpXpXpXpXpXpXpX",
"pXpXpXpXpXpXpXpXpXpXZ R i.pXpXpXpXpXpXpXpXpXpXpXpXpXpXpXpXpXpXpXpXpXpXpXpXpXpXpXpXpXpXpXpXpXpXpXpXpXpXpXpXpXpXpXpXpXpXpXpXpXpXpX",
"pXpXpXpXpXpXpXpXpXpXp i.3.pXpXpXpXpXpXpXpXpXpXpXpXpXpXpXpXpXpXpXpXpXpXpXpXpXpXpXpXpXpXpXpXpXpXpXpXpXpXpXpXpXpXpXpXpXpXpXpXpXpXpX",
"pXpXpXpXpXpXpXpXpXpXY i.D.pXpXpXpXpXpXpXpXpXpXpXpXpXpXpXpXpXpXpXpXpXpXpXpXpXpXpXpXpXpXpXpXpXpXpXpXpXpXpXpXpXpXpXpXpXpXpXpXpXpXpX",
"pXpXpXpXpXpXpXpXpXpXJ B.C.U.pXpXpXpXpXpXpXpXpXpXpXpXpXpXpXpXpXpXpXpXpXpXpXpXpXpXpXpXpXpXpXpXpXpXpXpXpXpXpXpXpXpXpXpXpXpXpXpXpXpX",
"pXpXpXpXpXpXpXpXpXpXW.M.M.C.pXpXpXpXpXpXpXpXpXpXpXpXpXpXpXpXpXpXpXpXpXpXpXpXpXpXpXpXpXpXpXpXpXpXpXpXpXpXpXpXpXpXpXpXpXpXpXpXpXpX",
"pXpXpXpXpXpXpXpXpXpXpX4X5.i.y.pXpXpXpXpXpXpXpXpXpXpXpXpXpXpXpXpXpXpXpXpXpXpXpXpXpXpXpXpXpXpXpXpXpXpXpXpXpXpXpXpXpXpXpXpXpXpXpXpX",
"pXpXpXpXpXpXpXpXpXpXpXpXpXpX~.].{.pXpXpXpXpXpXpXpXpXpXpXpXpXpXpXpXpXpXpXpXpXpXpXpXpXpXpXpXpXpXpXpXpXpXpXpXpXpXpXpXpXpXpXpXpXpXpX"
};
