/* XPM */
static char *result[] = {
/* columns rows colors chars-per-pixel */
"64 64 74 1 ",
"  c #231907",
". c #261B08",
"X c #2A1E0A",
"o c #2E210B",
"O c #34250D",
"+ c #38270E",
"@ c #3A290F",
"# c #2E2310",
"$ c #322612",
"% c #362A15",
"& c #3D2C11",
"* c #352B1A",
"= c #3B2E19",
"- c #3D311C",
"; c #402F15",
": c #413017",
"> c #43341B",
", c #453720",
"< c #473922",
"1 c #493B25",
"2 c #4B3E29",
"3 c #4E412D",
"4 c #4F4533",
"5 c #514632",
"6 c #534836",
"7 c #554B3A",
"8 c #584F3E",
"9 c #5C5445",
"0 c #5F5748",
"q c #655A46",
"w c #635B4C",
"e c #695F4E",
"r c #6B6354",
"t c #6F6758",
"y c #746C5D",
"u c #776F60",
"i c #787061",
"p c #807767",
"a c #807867",
"s c #837B6A",
"d c #87806E",
"f c #88806E",
"g c #8B8371",
"h c #918976",
"j c #948C7A",
"k c #99917E",
"l c #9B9380",
"z c #9D9789",
"x c #A09887",
"c c #A19B90",
"v c #AAA395",
"b c #B1AB9F",
"n c #AEAAA2",
"m c #B2ADA1",
"M c #B5B0A5",
"N c #B5B1AB",
"B c #BCB7AC",
"V c #BEBAB3",
"C c #C0BCB5",
"Z c #C6C3BE",
"A c #CBC7BD",
"S c #C7C4C0",
"D c #C8C6C1",
"F c #CECBC8",
"G c #D1CFCB",
"H c #D2D0CD",
"J c #D5D3D0",
"K c #DCDBD9",
"L c #E0DFDD",
"P c #E7E7E7",
"I c #EBEBEB",
"U c #F0F0EF",
"Y c #F5F5F5",
"T c #FEFEFE",
/* pixels */
"TPTPTPTPTPTPITPTPTPTPTPmllPTPYllllllYPTPTPTPTPTPTPTPTPTPTPTPITPT",
"PTPTPTPTPTPTTPTPTPTPllllllixlllgsglhyiPTPTPTPTPTPTPTPTPTPTPTTPTP",
"TPTPTPTPTPTPPTPTPTllffffli9lgssglllfii9JlfkllHTPTPTPTPTPTPTPPTPT",
"PTPTPTPTPTPTTPTPTGfffffff09fsggdgsghiw<ffffffllkPTPTPTPTPTPTTPTP",
"TPTPTPTPTPTPPTlllfiuiiuui<9ysgddffiiu9uufffffffinPTPTPTPTPTPPTPT",
"PTPTPTPTPTPTAllllgfw9iuur<6999ruiiui9wiiiffffdi9iTPTPTPTPTPTTPTP",
"TPTPTPTPTPTPfjlfgssu1<9<<  . X##   39<1siuiuiui9$PTPTPTPTPTPITPT",
"PTPTPTPTPTPTffffsgi9X$           =   = 1e9iiiis1fkllPTPTPTPTTPTP",
"TPTPTPTPllYPifiiuuu1.               %   ;&1si91illlllPTPTPTPITPT",
"PTPTPTTfflff29si991  O                      << ifffffLPTPTPTTPTP",
"TPTPTPfffffi9o $ =          1  XO %         $#OiifffffTPTPTPPTPT",
"PTPTPklffiii<    &   % X  O 1  XX.: O          19iiffffTPTPTTPTP",
"TPTPBlffii972        X OO .   9>>OO o O     %   X99iffiFTPTPPTPT",
"PTPTifffi91     &    X X  X+  +@@@ OO      >     >90ii9TPTPTTPTP",
"TPTPwyiui9      OX.  .&OO X.  .@+@;;. OOo >O#.    =o1-iiiPTPITPT",
"PTPTP# %9<     .X.O+..&&@  X& ;;>;@;. OO  ++X X=   Xwfgii9ITTPTP",
"TPTNyu3< -   @+3& oX o@@@X@ O @:1&:>> XXO @;+X+;o O #iffki9UITPT",
"YYlllii91.X X@ +@<XO>X@&@ ;OXo>&>&1&&: .oX>>;;X+X    eklfsi9YYUY",
"PTlllldi91O  & X@@ .  @:>@@X  @1><1&+@ &O +;;;@;<%  X ifffi0TPTP",
"TPffffgsi<% +;O2%O>O@X@;;@+;>> 6>>>&:& ;X .::>;@+o    iilfi9*TPT",
"PTfffiiir1% @3>;>&@ Xo@>&@>>@O >:@:>@O @o@ ;1;;;&@    isfuu9<PTP",
"TPfffgiy91% ;1>;&@+OoXO>:X15%  &:O>:O@ @X  @>:@>+ oX  ijfii91TPT",
"PTfgfffiy1O +>>>1&3+, @<:@>:@  &>31&@@ @X  :>>;:@.>.  sffir11PTP",
"TPi9iiiir>  ;>>;7;.  3<>;;:%@O >51>>++@@X  1:;O:@ OO  fiii96<TPT",
"PTi91<<7%   >>>;<; . @<&>:>;;+X&7:1:@@@;o  2@OX:+X@X % i9<31TPTP",
"Tlllg9w9<  =&&@@<>@+.>&&&&>&+%>&>>>>.@;@>  1;@;@;;@ %O flkii9TPT",
"Pffllii91  o5;@>;@@. 2;;1>;+.%:;3<3@ +;@%  >;:1;3;+.OXifgf9i9PTP",
"Tfffsii99  .8@1&;@O. 6@6>>;@X >;38@@+; ;&  >&@>;>@@X  iffkii9TPT",
"Pffffiiu9%  &&1&;;;. ;;>2>+X  6;>:;:;;.@O  >:>:;:O+ . ifllfi9PTP",
"Tffkllgi1  61>2>;>@+ +@>;>@+. >:1;:;;@.@X  >1:>;3@;@ Oillffs9TPT",
"PTgffffiX.X&<&9&:>:. &&>3@;@O >:>3:>:+++O X>>:e;5O@OX3igffii9PTP",
"TP91 iio% o&2,,&;@%X @&>>1@;  @;>>>6;@;@>> >>:@;OX;O. ifgjii9TPT",
"PTww<<-X. o &>;>;;%X @q>. >@O +;>:3>>>>;o<O<<&@;>@.@. uffiiu<aTP",
"TPi992<%o>o&>>;>;@O  @11>1&@  >>>>=>>>>@O.O2<&;6<1.O. iddi99<3PT",
"PTsu99991. ;;>;X;.>> @1>;;&+. >;:>>3>>;oO>&6<@&@>@.@. igiu9<<1TP",
"TPTdiiii9*X@5&:+;@% O;>>>@;O& 1:>>:>>;3@+ o><>>=>;o;: dui9999TPT",
"PTfffii991O@>;@7O@O X;>;7;<   1:>;513:.;   @&6>:>:.@;  er99y9PTP",
"TPffffi999X:>;@3;o@ >O6;=@;@  >:>>;>>:O+X O=>3&>>:.O++.9ffsr9<PT",
"PTffffi991 &1;1+X   ;;;;;>>X  >:>:3>;@@o. %>71@&>; @:o 8ffffi5.P",
"TPfffsi99 <>>;1;;+X @;@>X>;;..::>;@;;.@OO.1@&:>>3>3@o  tfffffi<T",
"PTlffffi9 21>;8;@X  ;;@6.>:@  @;>;+;.Oo.O :&::>o>;:@ . tffffgi1P",
"TPffffi01  9&>>;; 5 X;8;:>;;> ;;>3O@>@@.  9&&&>>:;:;1# 9ffffii<T",
"PTfffgi9< >1;@1;@.: @:>1;;;;X :>>8;@3@@.  >;:O o>;1O%> -sfgjfi3P",
"TPffliii9 &&1@@;O>O ;;1>;;;.. ;o:;:>>;@O o>>@@o@@;5;@  *ilffi91T",
"PTPfhii96 ;&:+3;+;X ;;>2;;;;X ;+>;oO:@@o=.>=:&&@@83;&  -i11111TP",
"TPTuiiww& >>>3;;@+O @;;3;>;X. ;+;>o>>&@o  $7>&3&@>@;X   illgsfiT",
"PTsuiiuy1+;;q;;>;;O ;>;5@;>   :;>O+&3O@O. O3&&>@;>;>O  $sklfi9eP",
"Tlfshfii>:;;;:;;O   +5;:;;@O  ;O;o>:@O@oo $<:@>:;>;7>   hlsii09T",
"Plffllii3%;;@;>;+X  %5&1;::X %@;@;;;;@@OX O;;@>>O:;;   wpuifiw>P",
"Tlfg=1ii1X@1;;>;&  -@3&5@:;@;;;@O:131;X@X >:;@1;;;+;X  rislfit<T",
"Pllfgii9O@@:>>>;&& &&1@*:>@;X  ;>;;71:@+o ::@;>>;:+X   %isllgi9P",
"Ylfgiy9<.o;:>:>+@OX1;>:*1>;OX  @;;O1;;@++ :@O+<>+++;; ,$isgfdiOY",
"TPu99<1o @;1;:>@X $<&&&o7>;;O @@@+;:;@.@5 >@&&<>:;o;+;@=9ud0  <T",
"Pllhi9r$  +@;;>@OOo<:&>o15;@X  O+;O>,:@Xo .o@+:&;>+;OX +iiflg9r.",
"zldfwii1: +3;3;@o.o1&&.O7>>;.  O+@+@2@& O o.@+&>o ++.X %pillfs9X",
"lfffyfieO6>>65@ >+O;@>@@;;>;   O@@@;>>@o>  ++&;&3;;+.X &iilffgu4",
"ffffffi7 ++><<&&.  1>-@:;@ @%.%o@  >>@o.   @ &++& X+   .1fffii9<",
"ffflji9< .&<&&&% + 6&@@6& OX@6@OX. ;;@ .     &&&. X     3ifffi93",
"gfkfgi93 oX>     o  &;@ @O;;O$<  o X&O o    O% &X%o  >< <yifsi9c",
"ffffii9<  yi1,<$,<qfiiXoX111>iiisuu8:1>>,1ii,<1=>X<<<dfy+9ii991P",
"qiwsi96 99rhgfhhhkjfjsiurr99999ehjgsaaiiisiusighgkjgiw9992999<bT",
"PTmPDZPDY99tVZZZZZZVZZZ3w9999w99999999990y009999r9139w999TMZPJZZ",
"TPTPTPTPTPTPITPTPTPTPLPFZHPYvYPTPTPTTPKmKPTGYPTPTPPZDZSPTPDPITPT",
"PTPTPTPTPTPTTPTPTZTCHZFZTPTPTPTPTZTPZJZAZSLTPTPTPTPTPTPTPTPTTPTP"
};
