/* XPM */
static char *result[] = {
/* columns rows colors chars-per-pixel */
"64 64 72 1 ",
"  c #231907",
". c #251B09",
"X c #291E0A",
"o c #2C210E",
"O c #32240D",
"+ c #2E2310",
"@ c #322612",
"# c #362A15",
"$ c #392C17",
"% c #362C1A",
"& c #3A2E1A",
"* c #3D311D",
"= c #3C3221",
"- c #42341E",
"; c #453720",
": c #473922",
"> c #483B25",
", c #4B3E29",
"< c #4E412C",
"1 c #4F4637",
"2 c #514633",
"3 c #534936",
"4 c #564C3A",
"5 c #5C5445",
"6 c #5F5748",
"7 c #655A46",
"8 c #635B4C",
"9 c #695F4E",
"0 c #675F50",
"q c #6B6354",
"w c #6F6758",
"e c #746C5D",
"r c #776F60",
"t c #787061",
"y c #807767",
"u c #837B6A",
"i c #87806E",
"p c #88806E",
"a c #8B8371",
"s c #918976",
"d c #948C7A",
"f c #99917E",
"g c #9B9380",
"h c #9D9789",
"j c #A09887",
"k c #A19B90",
"l c #AAA395",
"z c #B1AB9F",
"x c #AEAAA2",
"c c #B2ADA1",
"v c #B5B0A5",
"b c #B5B1AB",
"n c #BCB7AC",
"m c #BEBAB3",
"M c #C0BCB5",
"N c #C6C3BE",
"B c #CBC7BD",
"V c #C7C4C0",
"C c #C8C6C1",
"Z c #CDCBC6",
"A c #CECBC8",
"S c #D1CFCB",
"D c #D2D0CD",
"F c #D5D3D0",
"G c #DAD9D7",
"H c #DCDBD9",
"J c #E0DFDD",
"K c #E7E7E7",
"L c #EBEBEB",
"P c #F0F0EF",
"I c #F5F5F5",
"U c #FEFEFE",
/* pixels */
"UKUKUKUKUKUKLUKUKUKUKUKcggKUKIggggggPKUKUKUKUKUKUKUKUKUKUKUKLUKU",
"KUKUKUKUKUKUUKUKUKUKggggggtjgggappgdttKUKUKUKUKUKUKUKUKUKUKUUKUK",
"UKUKUKUKUKUKKUKUKUgfppppgt5gppuagggutt5FgpfggDUKUKUKUKUKUKUKKUKU",
"KUKUKUKUKUKUUKUKUSpippppp55ppppapppst8:ppppppggfKUKUKUKUKUKUUKUK",
"UKUKUKUKUKUKKUgggptttrttt:5eppauppttr5etppppppptxKUKUKUKUKUKKUKU",
"KUKUKUKUKUKUBgggfpp85ttrq:1555qrtttt58tttpppppt5tUKUKUKUKUKUUKUK",
"UKUKUKUKUKUKpdgppppt::5:: ....++.  <5:,uetttttt5@KUKUKUKUKUKLUKU",
"KUKUKUKUKUKUppppppt5oo      .        $ :q5rtrtu:pfggKUKUKUKUUKUK",
"UKUKUKUKggIKtpttrrt:.                   $#:ut5:tgggggKUKUKUKLUKU",
"KUKUKUUppgpp,5ut57:                     ....:: tpppppJKUKUKUUKUK",
"UKUKUKpppppt5o @.#                        . @O@ttpppppUKUKUKKUKU",
"KUKUKfgppttt:.                                .-5ttppppUKUKUUKUK",
"UKUKnfpptt54,                                   X55rpptZUKUKKUKU",
"KUKUtippt5:                                      -55tt5UKUKUUKUK",
"UKUK8ette5                                        *o:=tttKUKLUKU",
"KUKUK@.#5:                                         o8patt5LUUKUK",
"UKUbet<:.*.                                         otppfr5LIUKU",
"IIgggrr5>..                                         .8ggppt5IILI",
"KUggggpt5>O                                         ..tpppt5UKUK",
"UKppppppt:#                                         ..ttgpt5%UKU",
"KUppptttq:#                                           tuptt5;KUK",
"UKpppate5>#.                                          tdptt5>UKU",
"KUaappptt>o                                           upptq>:KUK",
"UKt5ttrtq-.                                           ptrt53:UKU",
"KUt5:::4@                                             .t5:<:UKUK",
"Uggga585:                                              pggtt5UKU",
"Kppggtt5:                                             tpap5t5KUK",
"Upppprt55                                             tppftt5UKU",
"Kppppttt5#                                            rpggpt5KUK",
"Uppgggpt:                                             tfgppu5UKU",
"KUappppto.                                           =tapptt5KUK",
"UK5:.tto#                                             tpadtt5UKU",
"KU88::*o..                                            tpptte:uUK",
"UKt55>:@o-                                            tppt55:,KU",
"KUur5555:.                                            tatt5::>UK",
"UKUitrtt5$                                            ptt5555UKU",
"KUppptt55:                                             8q55e5KUK",
"UKppppt555                                             5ppuq5:KU",
"KUppppr55>                                           X 5ppppt2 K",
"UKppiir55                                              qpppppt:U",
"KUgppppt5.                                             wppppat:K",
"UKppppt6>.                                             5pppptt:U",
"KUpppat5:                                              &upadat<K",
"UKppgttt5                                             .%tgapt5:U",
"KUKpdtr53.                                             =t::>::UK",
"UKUttt58#                                               tggapptU",
"KUutttte:.                                             @uggpt5qK",
"Uguudptt:o                                             .dgutt55U",
"Kgppggtt<                                              5uttpt8:K",
"Ugpa*:tt:                                              qtpgptq:U",
"Kggpptt5oo.                                           .otuggpt5K",
"Igpate5:X                                               tuppptOI",
"UKr55:>+                                                5tp5. :U",
"Kggst5q@                                                ttpga5q.",
"hgip8tt:*                                               ttggau5X",
"gpppept9o                                              %ttgppat<",
"ppppppr4.                                              .,ppptt7:",
"pppfdt6:                                                <tpppt5<",
"apfiat5<                                              :.>trpir5k",
"pppprt5:  e .:.. . 9rtXoXX::;rttur&+ @.%X>tt:::    ::purO5tt55:K",
"7t8ut53 55qsppsssfdpduteqq555550ddauyttttuttuyaaafdat8555,555:zU",
"KUcKCNKCI55emNNNNNNmNNC<85655055555565586e665556q5><58555UvNKDNN",
"UKUKUKUKUKUKKUKUKUKUKJKANDKIlPKUKUKUUKGcHKUDLKUKUKKNCNNKUKCKLUKU",
"KUKUKUKUKUKUUKUKUNUMDNANUKUKUKUKUNUKNFVCNVJUKUKUKUKUKUKUKUKUUKUK"
};
