/* XPM */
static char *result[] = {
/* columns rows colors chars-per-pixel */
"64 64 36 1 ",
"  c #ACD6EC",
". c #B4D6E7",
"X c #BCD6E3",
"o c #B6D9E9",
"O c #BEDAEB",
"+ c #C3DAE5",
"@ c #CDDCE5",
"# c #C4DDEA",
"$ c #CBDEEA",
"% c #D4DEE5",
"& c #C7E0EB",
"* c #CEE2ED",
"= c #D9E3E7",
"- c #D4E3EC",
"; c #DBE5EC",
": c #DEE8ED",
"> c #CAE4F2",
", c #CFEBF7",
"< c #D5E5F1",
"1 c #DEEBF3",
"2 c #DDEEF8",
"3 c #DBF0FA",
"4 c #E3EAEE",
"5 c #E4EDF4",
"6 c #EAEEF3",
"7 c #E6EEF8",
"8 c #E6F0F6",
"9 c #EDF1F5",
"0 c #E4F1F9",
"q c #ECF5FB",
"w c #EDF8FD",
"e c #F6F6F6",
"r c #F8F6F7",
"t c #F3F6F9",
"y c #F3F8FA",
"u c #F9F9F9",
/* pixels */
"eeeeeeeeeeeeeeeeeeeeeeeeereeeeeeeeeeeeeeeeeeeeeeeeeeeeeeeeeeeeee",
"eeeeeereeeeeeeerreeeeeeeeeeeeeeeeeeeeereeeeeeeeeeeeeeeeeeeeeeeee",
"eeeeeeeeeeeeeeeeeeeeeeeeeeeeeeeeeeeeeerreeeeeeeeeeeeeeereeereeee",
"eeeeeeeeeeeeeeeeeeeeeeeeeeeeeeeeeeeeeeeeeeeeeeeeeeeeeeeeeeeeeeee",
"eeeeeeeeeeeeeeeeeeeeeeeeeeeeeeeeeeeeeeeeeeeeeeeeeeeeeeeeeeeeeere",
"eeeeeeeeeeeeeeeeeeeeeeeeeeeeeeeeeeeeeeeeeeeeeeeeeeeeeeeeeeeeeeee",
"eeeereeeeeeeeeeeeeeeeeeeeeeeeeeeeeeeeeereeeeeeeeeeeeeeeeeeee9eee",
"eeeeeeeeeeeeeeeeeeeeeeeeeeeeeeeeeeeeeeeeeeeeeeeeeeeeeeeeeee69e9e",
"eeeeeereeeeeeeeeeeeereeeeeeeeeeeeeeeeeeereeeeeeeeeeeeeeeeee9669e",
"eeeeeeeeeeeeeeeeeeeeeeeeeeeeeeeeereeeeeeeeeee66eeeeeeeeeeee99eee",
"eeeeeeeeeeeeeeeeeeeeeeeeeeeeeeeeeeeeeeeeeeeee69eeeeeeeeeeee696ee",
"reeeeeeeeeeeeeeeeeee9eeeeeeeteeeeeeeeeeeeeeeeereeeeeeeeeeeeeeeee",
"eeeeeeeeeeeeerrreeee8eeeeeee9eeeeeeeeeeeeeeeeeeeeeeeeeeeeeteeeee",
"eeeeeeeeeeeeeeeeeeeeteeeeeeeteeeeeeeeeeeeeeeeeeeeeeeeeeeeeeeeeee",
"eeeeeeeereeeeeeeeeeeeeeeeeeeeeeeeeeeeeeeeeeeeeeeeereeeeeeeeeeeee",
"eeeeeeeeeeeeeeeeeeeeeeeeeeeeeeeeeeeeeeeeeeereeeeeeeeeeeeeeeeeeee",
"eeeeeeeeeeeeeeeeeeeeeeeeeeeeeeeeeeeeeeeeeeeeeeeeeeeeeeeeeeeeeeee",
"eeeeeeeeeeeeeeeeeeeeeeeeeeeeeeeeeeeeeeeeeeeeeeeeeeeeeeeeeeeeeeee",
"eeeeeeeeeeeeeeeeeeeeeeeeeeeeeeeetteeeeeeeereeeeeeeeeeeeeeeeeeeee",
"eereeeeeeeeee99eeeeeeeeeeeeeee9eeeee9eeeeeeeeeeeeeeeeeeeeeeeeeee",
"eeee98eeeeeeeeteeeeeeeeeeeeee554eeee6ee69eee9eeeeeeeeeeeeeeeeeee",
"eeeeeeeeeeeeeeeeeeeeeeeeeeeeet-eeeeeeee66reeteeeereeeeeeeeeeeeee",
"eeeeeeeeeeeeeeeeeeeeeeeeeeee9q::eeeeeeeeeeer6eeeeeeeeeeeeeeeeeee",
"eeeeeeeeeeeeeeeeee5etee9eeee9t4e8qeeteeeeeee4e9eeeeee99eeeeeeeee",
"eeeeeeeeeeeeeeeeeee56eeeeeet9eee1;eeteeeeeeeteeeeeeee8eeeeeeeeee",
"ee99eee5:e9eeeeeee5t9eeeeeeeeee955treeeeeeeeeeeeeeeee9eeeeeeeeee",
"eeq9eet58e9teeeeeeeqetteeeeeeee6q5e5eeeeeeeeeee6eeeeyeeeeeeeeeee",
"eeeeee&teeeeeeeeeeeeet9eeeeeeee4wqe5eeeeeeeeeee5=ee84eeeeeeeeeee",
"eee9eX0qet9eeeeeeeeeeeeeeeeeeee6959eeteeeeeeere&yt*&y=Xeeeeeeeee",
"eee9e:o-ee8eeeeeeeeee%1teetqet9e9eee6te9e@@reee8ee:08-eeeeeeeeee",
"eeeee*0-eeeeeeeeeteeer+e0qq@-q8eeeeee6qte55eeeeeee1O,@reereeeeee",
"eeeeee2eeeeeeeeeq5eee%<7et#*teeeeeee996teeee:4erer3y9&eeeeeeeeee",
"ereeee$eeeeeeeeey-eeeeq9tyqw9eeeeeee9e9eeeee95eeeeyq9qweeeeeeeee",
"eeeeerreeeet9eeeereq5ereeqw9yeee66eereeeeeeeeeeeeee69eeeeeeeeeee",
"eeeee6eeeeeeteeeeeet9eeeyyy9etee69eeeeeeeeeeeeeeeeee9eeeeeeeeeee",
"eeeeeteeeeeeeeeeeeeeeeeeeetqeeeeeeeeeeeeeeeeeeeeeeeeeeeeeeeeeeee",
"eeeeeeeeeeeeeeeeeeeeeeeetetueeeeeeeeeeeeeeeeeeeeeeeee9eeeeeeeeee",
"eeeeeeeeeeeeeeeeeeeeeetee9euee2eeeeee56eeeeeeeeeeeeeeeeeeeeeeeee",
"eureeeeeeeeeeeeeeeeeeeee9eeeee>eeeeee55reeeeeeeeeeeeeeeeeeeeeeee",
"erueeee4eteeeeee5eeeeeeeteeeee6eeeere96eeeeeeeee1eeeeeeeeeeeeeee",
"eeeeeee<eeeeeeeeteeeeeeeeeeeeeeeq5eeeeeeee45eeee:eeerreeeeeeeeee",
"eeeeeee9eeeeeeeeeeeeeeeeeeeeeeee:9eeeeeeee;5eeeeeeeereeeeeeeeeee",
"eeereeeeeeeeeeeeeeeeqe99eeeeeeeeqeeeeeeeeeeeeeeeeeeeeeeeeeeeeeee",
"eeeeeeeeeeeeeeeeeeeeeyeeee9reeeeeeeeeee9eeeeeeyeeeeeeeeeeeeeeeee",
"eeee996eeeeeeeeeeeeeet7reeeeeeeeeee9tre6eeeeee<eeeeeeeeeeeeeeeee",
"eeeetqeee7qeeteeeeee5t95eeeeeu95eq4-5ee6eeeeeOyweeeeeeeeeeeeeeee",
"eeeet9tee%qeeteeeeeeeeeeeeeeee99ee5-eeeeeeeee9#*eeeeeeeeeeeeeeue",
"eeeeeeet5tteeeeeeeeeeeeeeeeeeeeeeey9teeteeeee+00eee3eeeeeeeeeeee",
"eeeee9eeqqee:eeee9eeeeeeeeeeeeeee495eee9y9eeee1eeet1eeeeeeeeeeee",
"eeeeeeee&5ee5eeeeeeeeeee:%eeeeee5eeeee8t4eeeee:eeeeeeeeeeeeeeeee",
"eeeeeee1+5-eteeeeetteeee-5eeeeee9eeeeet2yeeeeeeeeeeeeeeeeeeeeeee",
"eeeeeeee6eteee9eee81eeee9eeeeeeeeeeeee19t9eeeeeeeeeeeeeeeeeeeeee",
"eeeeeeeeeeeee99eee55eeeeeeeeeeeeXeeeeeeyeeeeeeeeeeeereeeeeeeeeee",
"eeeeeeeeeeeeee6teeeeeq9reeeeeeteoeeeeeeeeeeeeeeeeeeeeeeeeeeeeeee",
"eeeeeeeeeeeeee9eeeeer99eeeeeeew:.*>eeeeeeeeeeeeeeeeeeeeeeeeeeeee",
"eeeeeeeeeeeeee9eeeeeeeeeeeeeeey&ooteeeeeeeeyye9eeeeeeeeeeeeeeeee",
"eeee9eeeeeeeeeeeeeeeeeeee5eeeeey =eeeeeeeeeeeeeeeeeeeeeeeeeeeeee",
"eeeeeeeeeeeeeeeeeeeeeeeee*eeeeeO oeeeeeeereeeeeeeeeereeeeeeeeeue",
"eeeeeeeeeeeeeeeeeeeeerreeteeeeqw.-&eeeeeeeeeeyeeeeeeeeeeeeeeeeee",
"eeeueueeeeeeeeeeeeeeureeeeeeeeee.eeeeeeeeeeeeeeeeeeeeeeeeeeeeeee",
"eeeeeeeeeeeeeeeeeeeeeeeeeeeeeeee.eeeeeeeeeeeeeeeeeereeeeeueeeeee",
"eeeeeeeeueeeeeeeeeeeeeeeeeeeeeeeeeeeeeeeeeeeeeeeeeeeeeeeeeeeeeee",
"eeeeeeeeeeeeeeeeeeeeeeeeeeeeeeeeeeeeeeeeeeeeeeeeeeeeeeeeeeeeeeee",
"eeeeeeeeeeeeeeeeeeeeeeeeeeeeeeeeeeeeeeeeeeeeereeeeeeeeeeeeeeeeee"
};
