/* XPM */
static char *result[] = {
/* columns rows colors chars-per-pixel */
"64 64 234 2 ",
"   c #1C1C1C",
".  c #161817",
"X  c #160E12",
"o  c #261B1D",
"O  c #20201F",
"+  c #2A1E22",
"@  c #381C24",
"#  c #1E2220",
"$  c #242423",
"%  c #252826",
"&  c #292826",
"*  c #2B2B2B",
"=  c #282929",
"-  c #322C2D",
";  c #3B2B2E",
":  c #38242A",
">  c #28302D",
",  c #3D2C31",
"<  c #2F3434",
"1  c #333433",
"2  c #3B3A3B",
"3  c #30302F",
"4  c #4C1B29",
"5  c #571B2B",
"6  c #591D30",
"7  c #4C1B31",
"8  c #6D0B26",
"9  c #750D27",
"0  c #6E152D",
"q  c #661A2D",
"w  c #72142D",
"e  c #761C2E",
"r  c #661D32",
"t  c #6B1B32",
"y  c #6F1632",
"u  c #751732",
"i  c #741933",
"p  c #7B1A33",
"a  c #791A35",
"s  c #44252F",
"d  c #4C242F",
"f  c #432B2F",
"g  c #4E282F",
"h  c #56252E",
"j  c #4C2530",
"k  c #432C31",
"l  c #4C2B32",
"z  c #472734",
"x  c #522330",
"c  c #5B2231",
"v  c #592B33",
"b  c #48363A",
"n  c #543B31",
"m  c #632232",
"M  c #6A2935",
"N  c #7A2433",
"B  c #722B35",
"V  c #792839",
"C  c #64312C",
"Z  c #41121F",
"A  c #3C413D",
"S  c #55492F",
"D  c #684D27",
"F  c #253F62",
"G  c #4F3C41",
"H  c #7E2C44",
"J  c #6D3041",
"K  c #394242",
"L  c #3B5A59",
"P  c #444445",
"I  c #464A4A",
"U  c #4B4A4C",
"Y  c #484748",
"T  c #4E4E50",
"R  c #5B5C5C",
"E  c #535456",
"W  c #534F4F",
"Q  c #685153",
"!  c #5B5E60",
"~  c #655D62",
"^  c #755661",
"/  c #794E61",
"(  c #5C6366",
")  c #666768",
"_  c #6A6D71",
"`  c #757579",
"'  c #7C6C73",
"]  c #64665B",
"[  c #831C35",
"{  c #8A1D35",
"}  c #891730",
"|  c #921F37",
" . c #881128",
".. c #852236",
"X. c #8E2437",
"o. c #862939",
"O. c #9B2235",
"+. c #942538",
"@. c #9B263A",
"#. c #9D293A",
"$. c #942335",
"%. c #A2283B",
"&. c #A3263B",
"*. c #84091E",
"=. c #8E4A31",
"-. c #A4792C",
";. c #842B43",
":. c #8A354B",
">. c #993246",
",. c #94364A",
"<. c #A4364A",
"1. c #92485E",
"2. c #A84758",
"3. c #8E4E63",
"4. c #8B5566",
"5. c #945568",
"6. c #9B5D71",
"7. c #B25969",
"8. c #B45769",
"9. c #AB5367",
"0. c #9B6475",
"q. c #817A7F",
"w. c #A5667A",
"e. c #A57C5F",
"r. c #B59031",
"t. c #D3AA31",
"y. c #E2B539",
"u. c #E6BA2E",
"i. c #C39232",
"p. c #EAC332",
"a. c #B48F72",
"s. c #948576",
"d. c #C69853",
"f. c #E58D56",
"g. c #E48C55",
"h. c #DCB442",
"j. c #E2B94A",
"k. c #D3916E",
"l. c #E49768",
"z. c #E29B75",
"x. c #D6B475",
"c. c #E4A17B",
"v. c #E7CF70",
"b. c #3D5D90",
"n. c #7D7F82",
"m. c #67799E",
"M. c #A96C81",
"N. c #B5798C",
"B. c #917A85",
"V. c #C37589",
"C. c #74898C",
"Z. c #6D8EBE",
"A. c #4980C4",
"S. c #85858A",
"D. c #9B8792",
"F. c #8D9297",
"G. c #94959B",
"H. c #94959A",
"J. c #908488",
"K. c #B1899B",
"L. c #9C9CA3",
"P. c #B89AA9",
"I. c #B296A8",
"U. c #9EA1A7",
"Y. c #A1A3AA",
"T. c #A4A9AD",
"R. c #B5A9B4",
"E. c #B3B3BB",
"W. c #BAB5BE",
"Q. c #AAADB4",
"!. c #D7AD92",
"~. c #E2AC8B",
"^. c #E2B19B",
"/. c #CB98A7",
"(. c #C19EB0",
"). c #D19EAE",
"_. c #C1AFBE",
"`. c #C6A6B4",
"'. c #D3A8B6",
"]. c #C2B1BE",
"[. c #CAB0BF",
"{. c #D7BABB",
"}. c #E5B4AB",
"|. c #BFC3B9",
" X c #EACE94",
".X c #D1C5B4",
"XX c #F2D6B1",
"oX c #D6C282",
"OX c #8DB1D3",
"+X c #BAB9C2",
"@X c #9FBBE2",
"#X c #C5B5C2",
"$X c #C9BAC6",
"%X c #DCBECB",
"&X c #D7B9CE",
"*X c #B1C0CE",
"=X c #BBD6E8",
"-X c #9AC6E5",
";X c #C6C5CA",
":X c #D9C7CC",
">X c #CCCBD5",
",X c #D8CBD6",
"<X c #D3D2DC",
"1X c #DCD9DC",
"2X c #E5C9D6",
"3X c #E9D6D2",
"4X c #F9E4C9",
"5X c #EEEADC",
"6X c #D7D5E1",
"7X c #DBDAE4",
"8X c #DDDDE9",
"9X c #D7D9E6",
"0X c #DBD4EA",
"qX c #E1DEEA",
"wX c #E6DCE5",
"eX c #EDDFF7",
"rX c #DAE1ED",
"tX c #DEE5F2",
"yX c #E4E3EC",
"uX c #E8E6EB",
"iX c #E4E5F2",
"pX c #EAE6F1",
"aX c #E5EAF4",
"sX c #EAEBF5",
"dX c #ECEEFA",
"fX c #E6EDFA",
"gX c #F1EEF8",
"hX c #EDF1FC",
"jX c #E5F2FA",
"kX c #F3F3FC",
"lX c #FCFBFE",
"zX c #F4F5FA",
"xX c #F8F3ED",
"cX c None",
/* pixels */
"cXcXcXcXcXcXcXcXcXcXcXcXcXcXcXcXcXcXcXcXcXcXcXcXcXcXcXcXcXcXcXcXcXcXcXcXcXcXcXcXcXcXcXcXcXcXcXcXcXcXcXcXcXcXcXcXcXcXcXcXcXcXcXcX",
"cXcXcXcXcXcXcXcXcXcXcXcXcXcXcXcXcXcXcXcXcXcXcXcXcXcXcXcXcXcXcXcXcXcXcXcXcXcXcXcXcXcXcXcXcXcXcXcXcXcXcXcXcXcXcXcXcXcXcXcXcXcXcXcX",
"cXcXcXcXcXcXcXcXcXcXcXcXcXcXcXcXcXcXcXcXcXcXcXcXcXcXcXcXcXcXcXcXcXcXcXcXcXcXcXcXcXcXcXcXcXcXcXcXcXcXcXcXcXcXcXcXcXcXcXcXcXcXcXcX",
"cXcXcXcXcXcXcXcXcXcXcXcXcXcXcXcXcXcXcXcXcXcXcXcXcXcXcXcXcXcXcXcXcXcXcXcXcXcXcXcXcXcXcXcXcXcXcXcXcXcXcXcXcXcXcXcXcXcXcXcXcXcXcXcX",
"cXcXcXcXcXcXcXcXcXcXcXcXcXcXcXcXcXcXcXcXcXcXcXcXcXcXcXcXcXcXcXcXcXcXcXcXcXcXcXcXcXcXcXcXcXcXcXcXcXcXcXcXcXcXcXcXcXcXcXcXcXcXcXcX",
"cXcXcXcXcXcXcXcXcXcXcXcXcXcXcXcXcXcXcXcXcXcXcXcXcX& 1 1 - - - 3 - - - * cXcXcXcXcXcXcXcXcXcXcXcXcXcXcXcXcXcXcXcXcXcXcXcXcXcXcXcX",
"cXcXcXcXcXcXcXcXcXcXcXcXcXcXcXcXcXcXcXcXcXcXcXcX& k v M M C M v M v v k - cXcXcXcXcXcXcXcXcXcXcXcXcXcXcXcXcXcXcXcXcXcXcXcXcXcXcX",
"cXcXcXcXcXcXcXcXcXcXcXcXcXcXcXcXcXcXcXcXcXcXcX& l o.#.#.#.#.#.#.#.#...i j - cXcXcXcXcXcXcXcXcXcXcXcXcXcXcXcXcXcXcXcXcXcXcXcXcXcX",
"cXcXcXcXcXcXcXcXcXcXcXcXcXcXcXcXcXcXcXcXcXcX% l o.%.%.%.%.%.&.&.%.%.%.| i d * cXcXcXcXcXcXcXcXcXcXcXcXcXcXcXcXcXcXcXcXcXcXcXcXcX",
"cXcXcXcXcXcXcXcXcXcXcXcXcXcXcXcXcXcXcXcXcX$ l o.%.%.%.#.#.#.#.#.#.#.%.@.$.e , * cXcXcXcXcXcXcXcXcXcXcXcXcXcXcXcXcXcXcXcXcXcXcXcX",
"cXcXcXcXcXcXcXcXcXcXcXcXcXcXcXcXcXcXcXcX$ l o.#.%.#.%.#.#.#.#.#.#.#.@.%.%...d > cXcXcXcXcXcXcXcXcXcXcXcXcXcXcXcXcXcXcXcXcXcXcXcX",
"cXcXcXcXcXcXcXcXcXcXcXcXcXcXcXcXcXcXcX$ k V #.#.#.#.#.#.@.@.#.#.#.#.#.#.%.@.m - % cXcXcXcXcXcXcXcXcXcXcXcXcXcXcXcXcXcXcXcXcXcXcX",
"cXcXcXcXcXcXcXcXcXcXcXcXcXcXcXcXcXcX$ , M [ { $.#.&.#.+.[ [ X.@.#.#.#.#.#.@.[ d * cXcXcXcXcXcXcXcXcXcXcXcXcXcXcXcXcXcXcXcXcXcXcX",
"cXcXcXcXcXcXcXcXcXcXcXcXcXcXcXcXcX$ k r u u p [ $.+.{ i i p [ $.O.O.O.O.O.O.| t : & cXcXcXcXcXcXcXcXcXcXcXcXcXcXcXcXcXcXcXcXcXcX",
"cXcXcXcXcXcXcXcXcXcXcXcXcXcXcXcX$ k r i u u i i p p i [ +.+.$.O.O.O.O.O.O.| O.o.l % cXcXcXcXcXcXcXcXcXcXcXcXcXcXcXcXcXcXcXcXcXcX",
"cXcXcXcXcXcXcXcXcXcXcXcXcXcXcX& , r u u u i i i i i p >.2.7.7.7.7.7.7.7.7.7.8.8.4.b % cXcXcXcXcXcXcXcXcXcXcXcXcXcXcXcXcXcXcXcXcX",
"cXcXcXcXcXcXcXcXcXcXcXcXcXcX$ , r i i i i i i i i a :.K.{.%X%X%X%X:X%X%X%X%X:X,X:XJ.A cXcXcXcXcXcXcXcXcXcXcXcXcXcXcXcXcXcXcXcXcX",
"cXcXcXcXcXcXcXcXcXcXcXcXcXcX& s r i i i y i a ;.1.w.`.yXzXdXfXfXdXdXsXdXkXdXgXjXzX*X] & cXcXcXcXcXcXcXcXcXcXcXcXcXcXcXcXcXcXcXcX",
"cXcXcXcXcXcXcXcXcXcXcXcXcX  - b M a t t y M ;.w.%XwXaXtX8X8X8XtX8X9X9X8XqXrXrXrX8XE.Q % cXcXcXcXcXcXcXcXcXcXcXcXcXcXcXcXcXcXcXcX",
"cXcXcXcXcXcXcXcXcXcXcXcXcX1 Q 0.M.3.J 6 x x H R.zXsX7X:X&X,X0XtX=X-XW.%X,X=X-X-XOX' b cXcXcXcXcXcXcXcXcXcXcXcXcXcXcXcXcXcXcXcXcX",
"cXcXcXcXcXcXcXcXcXcXcXcX* R E.,X+X' G : - : E E.yX8X:X^.}.2XpXiX@XZ.D.~.3XrXOXA.b., o cXcXcXcXcXcXcXcXcXcXcXcXcXcXcXcXcXcXcXcXcX",
"cXcXcXcXcXcXcXcXcXcXcXcX1 S.1XrXF.Y : s : + I Y.9X9X.Xz.z.}.XX{./.B.a.~.4X4X.XC.F . cXcXcXcXcXcXcXcXcXcXcXcXcXcXcXcXcXcXcXcXcXcX",
"cXcXcXcXcXcXcXcXcXcXcXcX1 n.+XF.T 7 y i 6 + I L.6X6X{.z.l.l.z.l.f.k.z. XXXXXXXoX' O cXcXcXcXcXcXcXcXcXcXcXcXcXcXcXcXcXcXcXcXcXcX",
"cXcXcXcXcXcXcXcXcXcXcXcXcXR ) Y x y p p y @ I Y.0XqX.Xz.f.f.f.g.l.~..X4X4X4X4XXXx.Q & cXcXcXcXcXcXcXcXcXcXcX  cXcXcXcXcXcXcXcXcX",
"cXcXcXcXcXcXcXcXcXcXcXcXcX1 , v y i p p 5 @ Y Y.1X7X:X~.g.g.g.l.!.,XyXgXgXgXgXxX4Xa.S O cXcXcXcXcXcXcXcX1 2 b 2 3 cXcXcXcXcXcXcX",
"cXcXcXcXcXcXcXcXcXcXcXcXcX+ 5 y i i u y s O 2 U.rX7X>X{.z.g.g.!.,XiXdXhXdXfXhXzXxX{.] > % # cXcXcXcXcXK ` G.T.U._ 1 cXcXcXcXcXcX",
"cXcXcXcXcXcXcXcXcXcXcXcX* s t p u u t s - * 1 ` 6XyX<X<X{.~.^.:XtXdXdXpX7X9XpXgXzX:X] 3 < - - o cXcXS G.yXgXzXzX>XR & cXcXcXcXcX",
"cXcXcXcXcXcXcXcXcXcXcXcX* j i u u t : Y C.F.R I H.6X7X<X<X,XwXpXdXyX0X6X6XiXdXqXgX*XR - ; x 5 Z + 2 S.uXlXlXlXlXpXS.& cXcXcXcXcX",
"cXcXcXcXcXcXcXcXcXcXcXcX* d t u t : E W.lXlX8XS.U G.1X8X<X<X9XpXhX7X<X9XpXdX8XqXaXG.A ; r p p 5 - ) ;XgXkXkXkXlXrXB.% cXcXcXcXcX",
"cXcXcXcXcXcXcXcXcXcXcXcX* d t t s Y +XlXlXzXlX1X` T G.7X9X<X<X8XsXdXpXdXdXpXpXdXE.T * ; r { $.M k _ <XiXrXhXkXlX8X` & cXcXcXcXcX",
"cXcXcXcXcXcXcXcXcXcXcX% ; c i c 1 ` zXlXhXkXkXzXE.I I S.+X>X<X6XqXdXgXkXzXzXzX+XE : : : 5 a X.B k W R.tX9XyXhXlX7X` & cXcXcXcXcX",
"cXcXcXcXcXcXcXcXcXcXcX- x y i d 1 J.aXjXhXkXkXlX>X! % 1 T n.E.<X7X8XdXzXlXzX$XR : 7 6 7 s v N M f s 3.#XrX8XaXjX>X) * cXcXcXcXcX",
"cXcXcXcXcXcXcXcXcXcX* k t u i 6 , Q $XjXhXhXzXzX>X] O : : : U S.Q.E.+X>X;XY.E @ q [ [ m ; s r N v h N 9./.#X#X#XD.P & cXcXcXcXcX",
"cXcXcXcXcXcXcXcXcXcX= j t a u r 6 6 6.$XrXyXsXgXW.E f m t 6 @ - T ! ! ~ E 2 @ q [ $.$.N f ; r [ ..V $.&.<.2.5./ P $ cXcXcXcXcXcX",
"cXcXcXcXcXcXcXcXcXcX= j t a i a a [ { 9./.`.[.].n.b B +.@...t d b T R Q n v i { @.%.%.o.l s r [ O.%.%.#.O...c ; $ cXcXcXcXcXcXcX",
"cXcXcXcXcXcXcXcXcXcX= j t p p [ +.$.O.%.<.1.3.Q b M +.#.#.$.p t / L.+XR.7.$.{ @.#.%.#.V f s r ..+.#.%.#.$.M ; $ cXcXcXcXcXcXcXcX",
"cXcXcXcXcXcXcXcXcXcX* j t [ { @.&.#.#.%.#.N g f v ..O.+.+.X.[ a 0.>XiXxXV.+.{ X.o.o.B v - - d m B V o.V C b $ cXcXcXcXcXcXcXcXcX",
"cXcXcXcXcXcXcXcXcXcX$ s q ..+.#.#.#.#.#.o.v ; g N p p a p p w N a.:XpX5Xk.[ a M v k ; - * : - ; f k k k ; & cXcXcXcXcXcXcXcXcXcX",
"cXcXcXcXcXcXcXcXcXcXcX@ 7 m M B B B B B v ; ; g c c c x 4 x 5 D d.x.XX Xj.o.t 7 > > * = + # % & O # % $ cXcXcXcXcXcXcXcXcXcXcXcX",
"cXcXcXcXcXcXcXcXcXcXcXo : ; k ; , , , , * 3 3 ; - ; - ; : & n -.t.h.j.j.p.r.C * # 3 * & cXcXcXcXcXcXcXcXcXcXcXcXcXcXcXcXcXcXcXcX",
"cXcXcXcXcXcXcXcXcXcXcX& s j j j - > > > > > > > > > > > > > D r.t.t.t.t.p.t.D > > > - : O cXcXcXcXcXcXcXcXcXcXcXcXcXcXcXcXcXcXcX",
"cXcXcXcXcXcXcXcXcXcX& b J V i u r j - * * * 3 - 3 - - 3 * * C r.t.t.y.y.p.i.C 3 * f c n A cXcXcXcXcXcXcXcXcXcXcXcXcXcXcXcXcXcXcX",
"cXcXcXcXcXcXcXcXcXcX< ) D.K.w.>.[ t c x x x j x x x j j 7 7 t =.r.x. Xv.y.=.4 7 h V 9.s.W O cXcXcXcXcXcXcXcXcXcXcXcXcXcXcXcXcXcX",
"cXcXcXcXcXcXcXcXcXcX% R T.qXwX/.<. .w t t w t y 0 0 y y y y 9 N s.;X9X5Xd.e 8 9 { 7.'.|.] & cXcXcXcXcXcXcXcXcXcXcXcXcXcXcXcXcXcX",
"cXcXcXcXcXcXcXcXcXcXcX1 _ *XsXsX/.>.*.8 8 8 8 8 8 8 8 9 9 9 *.{ w.,XiXdXN. .*. .2.'.gX;X! % cXcXcXcXcXcXcXcXcXcXcXcXcXcXcXcXcXcX",
"cXcXcXcXcXcXcXcXcXcXcXO - ' $XaXpX).2.o.V H H ;.H ;.H ;.>.>.<.2.P.1XdXdX&X<.>.9.`.uXsXU.P cXcXcXcXcXcXcXcXcXcXcXcXcXcXcXcXcXcXcX",
"cXcXcXcXcXcXcXcXcXcXcXcXO g 4.$XpXgX2X'.(.`.`.P.`.(.(.(.'.).).&XuXdXzXgXkX2X&X2XaXiXE.E % cXcXcXcXcXcXcXcXcXcXcXcXcXcXcXcXcXcXcX",
"cXcXcXcXcXcXcXcXcXcXcXcX& d t 6.#XiXdXkXkXkXkXkXkXkXkXzXkXgXkXgXzXhXhXkXgXgXdXpX8XP.Q # cXcXcXcXcXcXcXcXcXcXcXcXcXcXcXcXcXcXcXcX",
"cXcXcXcXcXcXcXcXcXcXcXcX* j 0 i 0.$XtXaXfXaXaXsXsXsXsXsXsXaXiXiXiXiXaXiXiXiXaX8XP.Q @ $ cXcXcXcXcXcXcXcXcXcXcXcXcXcXcXcXcXcXcXcX",
"cXcXcXcXcXcXcXcXcXcXcXcX* j y w i 5.R.#X#X_._._.].W.W.E.E.W.].]._.#X_.W.W.#X#XK.:.q ; % cXcXcXcXcXcXcXcXcXcXcXcXcXcXcXcXcXcXcXcX",
"cXcXcXcXcXcXcXcXcXcXcXcX* d t i i i H 3.3.3.3.3.4.^ ! ! ! ~ ^ 3.3.3.3.3.3.3.1.H u y s % cXcXcXcXcXcXcXcXcXcXcXcXcXcXcXcXcXcXcXcX",
"cXcXcXcXcXcXcXcXcXcXcXcX* j r p i i a i w 0 w 0 4 + # # #   @ 5 0 w 9 0 0 u i u i r k & cXcXcXcXcXcXcXcXcXcXcXcXcXcXcXcXcXcXcXcX",
"cXcXcXcXcXcXcXcXcXcXcXcX- n H u i i i i w w t 4 o X cXcXcXcXX @ 5 w w 0 w w i u u J G & cXcXcXcXcXcXcXcXcXcXcXcXcXcXcXcXcXcXcXcX",
"cXcXcXcXcXcXcXcXcXcXcXcX1 ~ 1.a 9 w 0 8 u i r k $ cXcXcXcXcXcX* j t u w 0 0 0 8 ;.6.! = cXcXcXcXcXcXcXcXcXcXcXcXcXcXcXcXcXcXcXcX",
"cXcXcXcXcXcXcXcXcXcXcXcX< _ K.6.a u i i a V J b % cXcXcXcXcXcX* G M a a a i w ;.N.R.( & cXcXcXcXcXcXcXcXcXcXcXcXcXcXcXcXcXcXcXcX",
"cXcXcXcXcXcXcXcXcXcXcXcXcXI G.+XK.6.0.w.M.M.4.I % cXcXcXcXcXcX* G 5.0.0.w.w.M.`.>XF.K cXcXcXcXcXcXcXcXcXcXcXcXcXcXcXcXcXcXcXcXcX",
"cXcXcXcXcXcXcXcXcXcXcXcXcX% T G.$X#X#X;X,X2XT.E * cXcXcXcXcXcX< ( I.+X#X&X&X0X<XF.P O cXcXcXcXcXcXcXcXcXcXcXcXcXcXcXcXcXcXcXcXcX",
"cXcXcXcXcXcXcXcXcXcXcXcXcXO * Y ` F.G.Y.Q.T.C.L & cXcXcXcXcXcX3 L C.L.U.U.T.L.` 2 $ cXcXcXcXcXcXcXcXcXcXcXcXcXcXcXcXcXcXcXcXcXcX",
"cXcXcXcXcXcXcXcXcXcXcXcXcXcX= * 1 P Y Y U I K < & cXcXcXcXcXcX* K K G K P I P 1 * & cXcXcXcXcXcXcXcXcXcXcXcXcXcXcXcXcXcXcXcXcXcX",
"cXcXcXcXcXcXcXcXcXcXcXcXcXcXcX+ O   . .       cXcXcXcXcXcXcXcXcX# # # . . . # + cXcXcXcXcXcXcXcXcXcXcXcXcXcXcXcXcXcXcXcXcXcXcXcX",
"cXcXcXcXcXcXcXcXcXcXcXcXcXcXcXcXcXcXcXcXcXcXcXcXcXcXcXcXcXcXcXcXcXcXcXcXcXcXcXcXcXcXcXcXcXcXcXcXcXcXcXcXcXcXcXcXcXcXcXcXcXcXcXcX",
"cXcXcXcXcXcXcXcXcXcXcXcXcXcXcXcXcXcXcXcXcXcXcXcXcXcXcXcXcXcXcXcXcXcXcXcXcXcXcXcXcXcXcXcXcXcXcXcXcXcXcXcXcXcXcXcXcXcXcXcXcXcXcXcX",
"cXcXcXcXcXcXcXcXcXcXcXcXcXcXcXcXcXcXcXcXcXcXcXcXcXcXcXcXcXcXcXcXcXcXcXcXcXcXcXcXcXcXcXcXcXcXcXcXcXcXcXcXcXcXcXcXcXcXcXcXcXcXcXcX",
"cXcXcXcXcXcXcXcXcXcXcXcXcXcXcXcXcXcXcXcXcXcXcXcXcXcXcXcXcXcXcXcXcXcXcXcXcXcXcXcXcXcXcXcXcXcXcXcXcXcXcXcXcXcXcXcXcXcXcXcXcXcXcXcX"
};
