/* XPM */
static char *result[] = {
/* columns rows colors chars-per-pixel */
"64 64 234 2 ",
"   c #1C1C1C",
".  c #161817",
"X  c #160E12",
"o  c #261B1D",
"O  c #20201F",
"+  c #2A1E22",
"@  c #381C24",
"#  c #1E2220",
"$  c #242423",
"%  c #252826",
"&  c #292826",
"*  c #2B2B2B",
"=  c #282929",
"-  c #322C2D",
";  c #3B2B2E",
":  c #38242A",
">  c #28302D",
",  c #3D2C31",
"<  c #2F3434",
"1  c #333433",
"2  c #3B3A3B",
"3  c #30302F",
"4  c #4C1B29",
"5  c #571B2B",
"6  c #591D30",
"7  c #4C1B31",
"8  c #6D0B26",
"9  c #750D27",
"0  c #6E152D",
"q  c #661A2D",
"w  c #72142D",
"e  c #761C2E",
"r  c #661D32",
"t  c #6B1B32",
"y  c #6F1632",
"u  c #751732",
"i  c #741933",
"p  c #7B1A33",
"a  c #791A35",
"s  c #44252F",
"d  c #4C242F",
"f  c #432B2F",
"g  c #4E282F",
"h  c #56252E",
"j  c #4C2530",
"k  c #432C31",
"l  c #4C2B32",
"z  c #472734",
"x  c #522330",
"c  c #5B2231",
"v  c #592B33",
"b  c #48363A",
"n  c #543B31",
"m  c #632232",
"M  c #6A2935",
"N  c #7A2433",
"B  c #722B35",
"V  c #792839",
"C  c #64312C",
"Z  c #41121F",
"A  c #3C413D",
"S  c #55492F",
"D  c #684D27",
"F  c #253F62",
"G  c #4F3C41",
"H  c #7E2C44",
"J  c #6D3041",
"K  c #394242",
"L  c #3B5A59",
"P  c #444445",
"I  c #464A4A",
"U  c #4B4A4C",
"Y  c #484748",
"T  c #4E4E50",
"R  c #5B5C5C",
"E  c #535456",
"W  c #534F4F",
"Q  c #685153",
"!  c #5B5E60",
"~  c #655D62",
"^  c #745661",
"/  c #794E61",
"(  c #5C6366",
")  c #666768",
"_  c #6A6D71",
"`  c #757579",
"'  c #7C6C73",
"]  c #64665B",
"[  c #831C35",
"{  c #8A1D35",
"}  c #891730",
"|  c #921F37",
" . c #881128",
".. c #852236",
"X. c #8E2437",
"o. c #862939",
"O. c #9B2235",
"+. c #942538",
"@. c #9B263A",
"#. c #9D293A",
"$. c #942335",
"%. c #A2283B",
"&. c #A3263B",
"*. c #84091E",
"=. c #8E4A31",
"-. c #A4792C",
";. c #842B43",
":. c #8A354B",
">. c #993246",
",. c #94364A",
"<. c #A4364A",
"1. c #92485E",
"2. c #A84758",
"3. c #8E4E63",
"4. c #8B5566",
"5. c #945568",
"6. c #9B5D71",
"7. c #B25969",
"8. c #B45769",
"9. c #AB5367",
"0. c #9B6475",
"q. c #817A7F",
"w. c #A56679",
"e. c #A57C5F",
"r. c #B59031",
"t. c #D3AA31",
"y. c #E2B539",
"u. c #E6BA2E",
"i. c #C39232",
"p. c #EAC332",
"a. c #B48F72",
"s. c #948576",
"d. c #C69853",
"f. c #E58D56",
"g. c #E48C55",
"h. c #DCB442",
"j. c #E2B94A",
"k. c #D3916E",
"l. c #E49768",
"z. c #E29B75",
"x. c #D6B475",
"c. c #E4A17B",
"v. c #E7CF70",
"b. c #3D5D90",
"n. c #7D7F82",
"m. c #67789E",
"M. c #A96C81",
"N. c #B5798C",
"B. c #917A85",
"V. c #C37589",
"C. c #74898C",
"Z. c #6D8EBE",
"A. c #4980C4",
"S. c #85858A",
"D. c #9B8692",
"F. c #8D9297",
"G. c #94959B",
"H. c #94959A",
"J. c #908387",
"K. c #B1899B",
"L. c #9C9CA3",
"P. c #B89AA9",
"I. c #B296A8",
"U. c #9EA1A7",
"Y. c #A1A3AA",
"T. c #A4A9AD",
"R. c #B5A9B4",
"E. c #B3B3BB",
"W. c #BAB5BE",
"Q. c #AAADB4",
"!. c #D7AD92",
"~. c #E2AC8B",
"^. c #E2B19B",
"/. c #CB98A7",
"(. c #C19EB0",
"). c #D19EAE",
"_. c #C1AFBE",
"`. c #C6A6B4",
"'. c #D3A8B6",
"]. c #C2B1BE",
"[. c #CAB0BF",
"{. c #D7BABB",
"}. c #E5B4AB",
"|. c #BFC3B9",
" X c #EACE94",
".X c #D1C5B4",
"XX c #F2D6B1",
"oX c #D6C282",
"OX c #8DB1D3",
"+X c #BAB9C2",
"@X c #9FBBE2",
"#X c #C5B5C2",
"$X c #C9BAC6",
"%X c #DCBECB",
"&X c #D7B9CE",
"*X c #B1C0CE",
"=X c #BBD6E8",
"-X c #9AC6E5",
";X c #C6C5CA",
":X c #D9C7CC",
">X c #CCCBD5",
",X c #D8CBD6",
"<X c #D3D2DC",
"1X c #DCD9DC",
"2X c #E5C9D6",
"3X c #E9D6D2",
"4X c #F9E4C9",
"5X c #EEEADC",
"6X c #D7D5E1",
"7X c #DBDAE4",
"8X c #DDDDE9",
"9X c #D7D9E6",
"0X c #DBD4EA",
"qX c #E1DEEA",
"wX c #E6DCE5",
"eX c #EDDFF7",
"rX c #DAE1ED",
"tX c #DEE5F2",
"yX c #E4E3EC",
"uX c #E8E6EB",
"iX c #E4E5F2",
"pX c #EAE6F1",
"aX c #E5EAF4",
"sX c #EAEBF5",
"dX c #ECEEFA",
"fX c #E6EDFA",
"gX c #F1EEF8",
"hX c #EDF1FC",
"jX c #E5F2FA",
"kX c #F3F3FC",
"lX c #FCFBFE",
"zX c #F4F5FA",
"xX c #F8F3ED",
"cX c None",
/* pixels */
"cXcXcXcXcXcXcXcXcXcXcXcXcXcXcXcXcXcXcXcXcXcXcXcXcXcXcXcXcXcXcXcXcXcXcXcXcXcXcXcXcXcXcXcXcXcXcXcXcXcXcXcXcXcXcXcXcXcXcXcXcXcXcXcX",
"cXcXcXcXcXcXcXcXcXcXcXcXcXcXcXcXcXcXcXcXcXcXcXcXcXcXcXcXcXcXcXcXcXcXcXcXcXcXcXcXcXcXcXcXcXcXcXcXcXcXcXcXcXcXcXcXcXcXcXcXcXcXcXcX",
"cXcXcXcXcXcXcXcXcXcXcXcXcXcXcXcXcXcXcXcXcXcXcXcXcXcXcXcXcXcXcXcXcXcXcXcXcXcXcXcXcXcXcXcXcXcXcXcXcXcXcXcXcXcXcXcXcXcXcXcXcXcXcXcX",
"cXcXcXcXcXcXcXcXcXcXcXcXcXcXcXcXcXcXcXcXcXcXcXcXcXcXcXcXcXcXcXcXcXcXcXcXcXcXcXcXcXcXcXcXcXcXcXcXcXcXcXcXcXcXcXcXcXcXcXcXcXcXcXcX",
"cXcXcXcXcXcXcXcXcXcXcXcXcXcXcXcXcXcXcXcXcXcXcXcXcXcXcXcXcXcXcXcXcXcXcXcXcXcXcXcXcXcXcXcXcXcXcXcXcXcXcXcXcXcXcXcXcXcXcXcXcXcXcXcX",
"cXcXcXcXcXcXcXcXcXcXcXcXcXcXcXcXcXcXcXcXcXcXcXcXcXcXcXcX* - * - - - - 1 - - & cXcXcXcXcXcXcXcXcXcXcXcXcXcXcXcXcXcXcXcXcXcXcXcXcX",
"cXcXcXcXcXcXcXcXcXcXcXcXcXcXcXcXcXcXcXcXcXcXcXcXcXcXcX- k v v M M M C M M v k * cXcXcXcXcXcXcXcXcXcXcXcXcXcXcXcXcXcXcXcXcXcXcXcX",
"cXcXcXcXcXcXcXcXcXcXcXcXcXcXcXcXcXcXcXcXcXcXcXcXcXcX* x i ..@.#.#.#.#.#.#.#.o.l & cXcXcXcXcXcXcXcXcXcXcXcXcXcXcXcXcXcXcXcXcXcXcX",
"cXcXcXcXcXcXcXcXcXcXcXcXcXcXcXcXcXcXcXcXcXcXcXcXcX3 d i $.&.%.%.#.#.%.%.%.&.&.o.l % cXcXcXcXcXcXcXcXcXcXcXcXcXcXcXcXcXcXcXcXcXcX",
"cXcXcXcXcXcXcXcXcXcXcXcXcXcXcXcXcXcXcXcXcXcXcXcX= , t | @.%.#.#.#.#.#.#.#.%.%.%.o.l $ cXcXcXcXcXcXcXcXcXcXcXcXcXcXcXcXcXcXcXcXcX",
"cXcXcXcXcXcXcXcXcXcXcXcXcXcXcXcXcXcXcXcXcXcXcXcX> g ..&.#.#.#.#.#.#.#.#.#.#.%.%.%.o.l $ cXcXcXcXcXcXcXcXcXcXcXcXcXcXcXcXcXcXcXcX",
"cXcXcXcXcXcXcXcXcXcXcXcXcXcXcXcXcXcXcXcXcXcXcX% - m @.%.@.#.#.#.#.#.#.#.#.#.#.#.#.#.V k % cXcXcXcXcXcXcXcXcXcXcXcXcXcXcXcXcXcXcX",
"cXcXcXcXcXcXcXcXcXcXcXcXcXcXcXcXcXcXcXcXcXcXcX> d [ @.%.#.#.#.#.+.X.[ ..$.#.%.#.X...[ M k $ cXcXcXcXcXcXcXcXcXcXcXcXcXcXcXcXcXcX",
"cXcXcXcXcXcXcXcXcXcXcXcXcXcXcXcXcXcXcXcXcXcX= : t { O.O.O.O.O.O.$...p i a ..+.+...a u u r s $ cXcXcXcXcXcXcXcXcXcXcXcXcXcXcXcXcX",
"cXcXcXcXcXcXcXcXcXcXcXcXcXcXcXcXcXcXcXcXcXcX# l ..O.&.O.O.O.O.O.$.$.$.X.[ e a p e u w i u r ; $ cXcXcXcXcXcXcXcXcXcXcXcXcXcXcXcX",
"cXcXcXcXcXcXcXcXcXcXcXcXcXcXcXcXcXcXcXcXcX% S 4.7.8.8.8.7.7.7.8.8.8.8.2.>.p w i u i i i i i r k & cXcXcXcXcXcXcXcXcXcXcXcXcXcXcX",
"cXcXcXcXcXcXcXcXcXcXcXcXcXcXcXcXcXcXcXcXcXA J.:X2X:X%X:X%X%X%X%X%X%X%X&XN.:.a a u a a y u a a 6 ; $ cXcXcXcXcXcXcXcXcXcXcXcXcXcX",
"cXcXcXcXcXcXcXcXcXcXcXcXcXcXcXcXcXcXcXcX= R ;XzXzXsXgXgXgXsXdXsXhXhXsXkXuXR.M.1.;.a i y y y y r s & cXcXcXcXcXcXcXcXcXcXcXcXcXcX",
"cXcXcXcXcXcXcXcXcXcXcXcXcXcXcXcXcXcXcXcX& R E.8XrXrXrXrX7X7X9XrXrX8X0X8XuXsXwX%Xw.;.t t y i a J v *   cXcXcXcXcXcXcXcXcXcXcXcXcX",
"cXcXcXcXcXcXcXcXcXcXcXcXcXcXcXcXcXcXcXcXcXl ' OX-X-X=X<X{.+X-X=XrX8X<X%X:X7XsXkXW.J x j c J 3.w.0.Q 1 cXcXcXcXcXcXcXcXcXcXcXcXcX",
"cXcXcXcXcXcXcXcXcXcXcXcXcXcXcXcXcXcXcXcXcXo , b.A.OXrX3X!.N.Z.@XtXiX2X}.^.:X8X8XE.W : - : G ' +X7XR.R * cXcXcXcXcXcXcXcXcXcXcXcX",
"cXcXcXcXcXcXcXcXcXcXcXcXcXcXcXcXcXcXcXcXcXcX  F C..X5XXX~.a.B.P.{.XX}.z.~..X6X9XT.I $ : j : P F.7X9XS.1 cXcXcXcXcXcXcXcXcXcXcXcX",
"cXcXcXcXcXcXcXcXcXcXcXcXcXcXcXcXcXcXcXcXcXcX% ) !.XXXXXX Xc.k.k.l.z.l.l.z.{.6X9XL.U @ 6 w t 4 U G.+XC.1 cXcXcXcXcXcXcXcXcXcXcXcX",
"cXcXcXcXcXcXcXcXcX  cXcXcXcXcXcXcXcXcXcXcX& Q !.XX4X4X4X3XXX~.l.f.f.f.f.z..X6X9XY.Y @ y [ p t x Y ) R cXcXcXcXcXcXcXcXcXcXcXcXcX",
"cXcXcXcXcXcXcX- 2 b 2 < cXcXcXcXcXcXcXcX% S a.4XxXzXgXxXgXyX:X!.l.f.g.g.~.:X<X1XY.I @ 5 } u p t v , 1 cXcXcXcXcXcXcXcXcXcXcXcXcX",
"cXcXcXcXcXcX1 _ Y.Y.G.` 2 cXcXcXcXcX# > 3 Q .XxXzXhXjXjXhXdXiX,X~.l.g.z.{.,X6XrXU.K $ : 0 u i i t 4 @ cXcXcXcXcXcXcXcXcXcXcXcXcX",
"cXcXcXcXcX& R <XzXgXzXyXH.P cXcXo - 3 3 3 ~ ;XkXdXpX9X7XpXdXdXiX2X^.~.{.<X<XrX7X` 1 * - s t u u a t s = cXcXcXcXcXcXcXcXcXcXcXcX",
"cXcXcXcXcX= n.uXlXlXlXlXyXF.1 o Z 5 x ; * R ;XdXqXdXiX<X<X8XyXdXpX2X<X<X<X7X<XH.I ! F.n.Y : q a a y j * cXcXcXcXcXcXcXcXcXcXcXcX",
"cXcXcXcXcX& S.qXlXzXhXkXgX;X) ; 5 p p r ; K G.pXyX8XdXpX7X<X8XhXaX7X<X<X7X<XH.T S.7XlXlX*XT : t u t j * cXcXcXcXcXcXcXcXcXcXcXcX",
"cXcXcXcXcX& ` rXlXzXhXyXaX>X_ k M $.{ q ; = T E.dXpXpXdXdXpXsXsX8X<X<X8X7XL.U ` 7XlXzXlXlXW.Y l t t x = cXcXcXcXcXcXcXcXcXcXcXcX",
"cXcXcXcXcX& ` 8XlXhXyX7XiXR.W , B X.N 5 : : - R +XzXlXzXkXgXdXqX7X<X>X+XS.I I W.zXzXkXhXlXgX` 1 c t c ; % cXcXcXcXcXcXcXcXcXcXcX",
"cXcXcXcXcX= ) >XhXiX8XrX#X3.d f M N v s 7 6 4 @ R +XzXlXzXdXqX0X6XQ.` E 1 $ ! >XlXzXzXzXjXuXS.1 x i y x - cXcXcXcXcXcXcXcXcXcXcX",
"cXcXcXcXcX$ K D.$X#X[./.9.N g v N t f ; r [ p q 4 W Y.>X;X+XE.Q.S.U * : @ O ] >XlXzXhXdXjX#XQ s 6 u a t k * cXcXcXcXcXcXcXcXcXcX",
"cXcXcXcXcXcX% P / 5.2.<.&.$.V o.p q s f N +.| { q : , R ) ( ! U , @ 5 t m f E W.sXpXyXrX$X6.m 6 r u u t j & cXcXcXcXcXcXcXcXcXcX",
"cXcXcXcXcXcXcX$ ; c ..O.%.%.#.#...t f l o.%.%.#...t v n Q ! T b j q ..@.@.M b s._.[.`.P.9.{ p a a a a t j & cXcXcXcXcXcXcXcXcXcX",
"cXcXcXcXcXcXcXcX$ ; M $.#.%.#.#.[ r ; f V #.%.%.#.} $.9.R.+XL.^ i p +.#.%.+.v G Q 4.2.<.%.@.+.+.[ a a t l = cXcXcXcXcXcXcXcXcXcX",
"cXcXcXcXcXcXcXcXcX$ f M V o.V B m j : 3 x B o.o.X...| V.jXpX>X0.a [ | +.+.+...m f g N #.%.#.%.%.@.{ [ t l & cXcXcXcXcXcXcXcXcXcX",
"cXcXcXcXcXcXcXcXcXcX% ; k f f ; ; - - * - , k v t i [ k.5XtX:Xa.N y a p a p [ M g ; v o.#.#.#.#.#.+.[ t 7 & cXcXcXcXcXcXcXcXcXcX",
"cXcXcXcXcXcXcXcXcXcXcXcX$ $ # $ # $ + # = = > > j y =.j. XXXoXi.=.7 7 x c c 6 c l ; ; v B B B B B M m 4 @ cXcXcXcXcXcXcXcXcXcXcX",
"cXcXcXcXcXcXcXcXcXcXcXcXcXcXcXcXcXcXcXcX= - > # - C r.p.j.j.t.t.-.n - * - ; ; - - 3 3 3 ; ; ; ; , k ; - o cXcXcXcXcXcXcXcXcXcXcX",
"cXcXcXcXcXcXcXcXcXcXcXcXcXcXcXcXcXcXcXO : - 3 > > D t.u.t.u.t.t.r.S & > > > * * > > > > > > * - j j d , * cXcXcXcXcXcXcXcXcXcXcX",
"cXcXcXcXcXcXcXcXcXcXcXcXcXcXcXcXcXcXcX2 n m ; - & n i.p.y.y.t.t.-.C * > * - 3 3 3 3 3 * * - d r y i V J b = cXcXcXcXcXcXcXcXcXcX",
"cXcXcXcXcXcXcXcXcXcXcXcXcXcXcXcXcXcX= W s.1.V c s 4 =.p.v.^.x.r.=.q 5 d j x x x d x j x d c t } ,.w.K.D.~ 1 cXcXcXcXcXcXcXcXcXcX",
"cXcXcXcXcXcXcXcXcXcXcXcXcXcXcXcXcXcX& ] .X{.7.} e 8 e k.5XwX.Xs.N w 0 0 y u t y 0 y y y 0 0  .<./.wX8XQ.E * cXcXcXcXcXcXcXcXcXcX",
"cXcXcXcXcXcXcXcXcXcXcXcXcXcXcXcXcXcX& R ;XgX'.2. .*. .V.pXiX>XM.} *.9 9 9 8 8 8 8 8 8 8 8 9 <./.pXgX;X_ < cXcXcXcXcXcXcXcXcXcXcX",
"cXcXcXcXcXcXcXcXcXcXcXcXcXcXcXcXcXcXcXP Y.sXuX`.9.%.<.&XdXdX0X(.9.%.>.>.;.;.H ;.H ;.H ;.+.2./.pXsX#X' 3   cXcXcXcXcXcXcXcXcXcXcX",
"cXcXcXcXcXcXcXcXcXcXcXcXcXcXcXcXcXcXcX% E W.aXaX,X&X2XgXkXgXdXqX:X).).`.(.(.(.(.(.`.P.(.'.2XdXaX$X4.d O cXcXcXcXcXcXcXcXcXcXcXcX",
"cXcXcXcXcXcXcXcXcXcXcXcXcXcXcXcXcXcXcXcX$ E P.7XdXgXdXgXgXgXgXdXgXkXkXzXzXzXzXzXkXkXzXkXhXhXaX$X6.q 4 & cXcXcXcXcXcXcXcXcXcXcXcX",
"cXcXcXcXcXcXcXcXcXcXcXcXcXcXcXcXcXcXcXcX$ @ Q P.qXaXaXiXiXaXaXiXyXiXaXfXaXsXsXaXsXaXsXaXaXtX$X6.i 0 d * cXcXcXcXcXcXcXcXcXcXcXcX",
"cXcXcXcXcXcXcXcXcXcXcXcXcXcXcXcXcXcXcXcX& : r :.K.#X#X#X_._._._.].].W.E.E.W.W.W.#X_._.+X#XR.5.a w t g * cXcXcXcXcXcXcXcXcXcXcXcX",
"cXcXcXcXcXcXcXcXcXcXcXcXcXcXcXcXcXcXcXcX% s r w H 3.3.3.3.3.3.3.4.^ ~ R R ~ ^ 3.3.3.3.3.3.H i 0 a t d = cXcXcXcXcXcXcXcXcXcXcXcX",
"cXcXcXcXcXcXcXcXcXcXcXcXcXcXcXcXcXcXcXcX% k r i u i u 8 w w w 0 5 @ $ # # # + 4 0 w u u t a i u i t j * cXcXcXcXcXcXcXcXcXcXcXcX",
"cXcXcXcXcXcXcXcXcXcXcXcXcXcXcXcXcXcXcXcX% G J u u u 0 0 8 u u 5 @ X cXcXcXcXX + 4 w w w u u u u i B n 3 cXcXcXcXcXcXcXcXcXcXcXcX",
"cXcXcXcXcXcXcXcXcXcXcXcXcXcXcXcXcXcXcXcX= ~ 6.V 8 8 u 0 0 u y 7 $ cXcXcXcXcXcX% f m u u 0 0 8 0 a 1.~ 1 cXcXcXcXcXcXcXcXcXcXcXcX",
"cXcXcXcXcXcXcXcXcXcXcXcXcXcXcXcXcXcXcXcX& ( R.N.H u u i a a J G * cXcXcXcXcXcX= b M V a a i 0 N 6.K._ 3 cXcXcXcXcXcXcXcXcXcXcXcX",
"cXcXcXcXcXcXcXcXcXcXcXcXcXcXcXcXcXcXcXcXcXK F.,X`.N.0.w.w.6.3.W - cXcXcXcXcXcX= G 5.M.M.w.0.6.K.#XH.L cXcXcXcXcXcXcXcXcXcXcXcXcX",
"cXcXcXcXcXcXcXcXcXcXcXcXcXcXcXcXcXcXcXcXcX$ K F.<XwX>X&X#X+XT.( 3 cXcXcXcXcXcX= L Q.,X<X;X#X#X$XG.T * cXcXcXcXcXcXcXcXcXcXcXcXcX",
"cXcXcXcXcXcXcXcXcXcXcXcXcXcXcXcXcXcXcXcXcXcX% b ` L.T.L.L.L.C.L 3 cXcXcXcXcXcX* L C.T.Q.Y.G.H.` Y = O cXcXcXcXcXcXcXcXcXcXcXcXcX",
"cXcXcXcXcXcXcXcXcXcXcXcXcXcXcXcXcXcXcXcXcXcX$ * 1 G I Y P P K < = cXcXcXcXcXcX& < K I Y Y P P 1 3 = cXcXcXcXcXcXcXcXcXcXcXcXcXcX",
"cXcXcXcXcXcXcXcXcXcXcXcXcXcXcXcXcXcXcXcXcXcXcXcX#   . .     o O cXcXcXcXcXcXcXcXcXo     .     o + cXcXcXcXcXcXcXcXcXcXcXcXcXcXcX",
"cXcXcXcXcXcXcXcXcXcXcXcXcXcXcXcXcXcXcXcXcXcXcXcXcXcXcXcXcXcXcXcXcXcXcXcXcXcXcXcXcXcXcXcXcXcXcXcXcXcXcXcXcXcXcXcXcXcXcXcXcXcXcXcX",
"cXcXcXcXcXcXcXcXcXcXcXcXcXcXcXcXcXcXcXcXcXcXcXcXcXcXcXcXcXcXcXcXcXcXcXcXcXcXcXcXcXcXcXcXcXcXcXcXcXcXcXcXcXcXcXcXcXcXcXcXcXcXcXcX",
"cXcXcXcXcXcXcXcXcXcXcXcXcXcXcXcXcXcXcXcXcXcXcXcXcXcXcXcXcXcXcXcXcXcXcXcXcXcXcXcXcXcXcXcXcXcXcXcXcXcXcXcXcXcXcXcXcXcXcXcXcXcXcXcX",
"cXcXcXcXcXcXcXcXcXcXcXcXcXcXcXcXcXcXcXcXcXcXcXcXcXcXcXcXcXcXcXcXcXcXcXcXcXcXcXcXcXcXcXcXcXcXcXcXcXcXcXcXcXcXcXcXcXcXcXcXcXcXcXcX"
};
