/* XPM */
static char *result[] = {
/* columns rows colors chars-per-pixel */
"64 64 247 2 ",
"   c #020301",
".  c #020C02",
"X  c #0B0902",
"o  c #130C03",
"O  c #1C0A02",
"+  c #160502",
"@  c #031303",
"#  c #0B1404",
"$  c #051C05",
"%  c #0A1B06",
"&  c #0A1A0B",
"*  c #1B1304",
"=  c #151807",
"-  c #230701",
";  c #230B03",
":  c #2B0803",
">  c #3B0401",
",  c #370703",
"<  c #291505",
"1  c #35170A",
"2  c #3D1E13",
"3  c #072207",
"4  c #092407",
"5  c #072609",
"6  c #092509",
"7  c #052C0B",
"8  c #092B0A",
"9  c #062907",
"0  c #12230A",
"q  c #172809",
"w  c #06310D",
"e  c #09320C",
"r  c #182914",
"t  c #0B3511",
"y  c #0B3B12",
"u  c #053311",
"i  c #183916",
"p  c #092D12",
"a  c #25250A",
"s  c #353809",
"d  c #252A17",
"f  c #26341A",
"g  c #333419",
"h  c #32240C",
"j  c #283521",
"k  c #353A26",
"l  c #332C20",
"z  c #4A0804",
"x  c #530302",
"c  c #5C0402",
"v  c #570A06",
"b  c #4C160B",
"n  c #5A1409",
"m  c #551713",
"M  c #670804",
"N  c #740804",
"B  c #66150B",
"V  c #76140A",
"C  c #751311",
"Z  c #482712",
"A  c #503312",
"S  c #74260B",
"D  c #67351A",
"F  c #6E2A12",
"G  c #0A461A",
"H  c #084619",
"J  c #1A4519",
"K  c #214E1E",
"L  c #22501E",
"P  c #095824",
"I  c #185726",
"U  c #144920",
"Y  c #37462A",
"T  c #265523",
"R  c #32592C",
"E  c #0B682C",
"W  c #0B7332",
"Q  c #0B7C36",
"!  c #0B7F38",
"~  c #0B6C30",
"^  c #2D632A",
"/  c #356F31",
"(  c #4D4B10",
")  c #705512",
"_  c #484A33",
"`  c #4B5635",
"'  c #4E5332",
"]  c #764926",
"[  c #456626",
"{  c #56782B",
"}  c #4B752F",
"|  c #707B2D",
" . c #1C7E41",
".. c #575849",
"X. c #5B724C",
"o. c #71684B",
"O. c #880707",
"+. c #93090A",
"@. c #99170A",
"#. c #881812",
"$. c #951C15",
"%. c #88160B",
"&. c #A60A08",
"*. c #A40C12",
"=. c #AA1814",
"-. c #BA1315",
";. c #B10D0B",
":. c #922812",
">. c #A52515",
",. c #AC3816",
"<. c #B93617",
"1. c #BD2819",
"2. c #90392A",
"3. c #AF3C2D",
"4. c #C9180F",
"5. c #C81517",
"6. c #D71419",
"7. c #D10D13",
"8. c #E4121B",
"9. c #ED1319",
"0. c #E70E1A",
"q. c #D62519",
"w. c #C1331C",
"e. c #EA2A1A",
"r. c #EF3718",
"t. c #CA2827",
"y. c #D2332B",
"u. c #EA2A28",
"i. c #CA1E24",
"p. c #8E4A1A",
"a. c #A64E15",
"s. c #926E13",
"d. c #914C39",
"f. c #A94628",
"g. c #AF4F2C",
"h. c #947131",
"j. c #AC7529",
"k. c #A87F1E",
"l. c #F1511A",
"z. c #F47B15",
"x. c #F67615",
"c. c #E47912",
"v. c #CB4E2C",
"b. c #EA5633",
"n. c #EA4E27",
"m. c #D97533",
"M. c #EF6B2D",
"N. c #C65115",
"B. c #9D584D",
"V. c #8B7058",
"C. c #B96F59",
"Z. c #8D7E68",
"A. c #C2544C",
"S. c #E65352",
"D. c #D76756",
"F. c #E56659",
"G. c #CD7974",
"H. c #EB6168",
"J. c #0B853C",
"K. c #0B893E",
"L. c #07833A",
"P. c #48843E",
"I. c #5B8431",
"U. c #668933",
"Y. c #6B9435",
"T. c #6A9535",
"R. c #739B37",
"E. c #768D30",
"W. c #77A537",
"Q. c #7FB339",
"!. c #1E8A43",
"~. c #488A42",
"^. c #4E9346",
"/. c #529D4C",
"(. c #508840",
"). c #6B9155",
"_. c #55A24E",
"`. c #5BA953",
"'. c #65B85B",
"]. c #6FA753",
"[. c #74B262",
"{. c #6AC15F",
"}. c #6CC461",
"|. c #6FCA65",
" X c #71CC65",
".X c #B18A1D",
"XX c #93912E",
"oX c #B38A25",
"OX c #AE8A2A",
"+X c #81B73A",
"@X c #939913",
"#X c #CD9618",
"$X c #F88714",
"%X c #F19815",
"&X c #F7890E",
"*X c #D6A218",
"=X c #F1AB10",
"-X c #CD9B25",
";X c #DFA232",
":X c #FBC405",
">X c #F1C326",
",X c #EFCA35",
"<X c #FAE300",
"1X c #8C875E",
"2X c #9D8D66",
"3X c #9A9C65",
"4X c #A38D6C",
"5X c #A5956B",
"6X c #AC9775",
"7X c #BC9364",
"8X c #BCA37B",
"9X c #ADA879",
"0X c #94A554",
"qX c #C3A67D",
"wX c #D3AD64",
"eX c #E09E5A",
"rX c #81C25D",
"tX c #ECDA5D",
"yX c #7D8F9C",
"uX c #AC928F",
"iX c #BCB184",
"pX c #8AA7AE",
"aX c #C4AB84",
"sX c #D4B68B",
"dX c #D7BB94",
"fX c #CAAF91",
"gX c #ECA099",
"hX c #96D181",
"jX c #E9C395",
"kX c #F8D495",
"lX c #EED2A6",
"zX c #EED6AA",
"xX c #F6D8A8",
"cX c #EEE29C",
"vX c #BBDEF5",
"bX c #B1CFE4",
"nX c #BCE4F9",
"mX c #F5CECF",
"MX c #FEECCD",
"NX c #F8E6C8",
"BX c #F6ECD2",
"VX c #FCF9EA",
"CX c #FDFAF2",
"ZX c #FAFBFC",
"AX c #F2EDE3",
"SX c #D6D0C9",
"DX c None",
/* pixels */
"DXDXDXDXDXDXDXDXDXDXDXDXDXDXDXDXDXDXDXDXDXDXDXDXDXDXDXDXDXDXDX@ DXDXDXDXDXDXDXDXDXDXDXDXDXDXDXDXDXDXDXDXDXDXDXDXDXDXDXDXDXDXDXDX",
"DXDXDXDXDXDXDXDXDXDXDXDXDXDXDXDXDXDXDXDXDXDXDXDXDXDXDXDXDXDX@ @ DX@ DXDXDXDXDXDXDXDXDXDXDXDXDXDXDXDXDXDXDXDXDXDXDXDXDXDXDXDXDXDX",
"DXDXDXDXDXDXDXDXDXDXDXDXDXDXDXDXDXDXDXDXDXDXDXDXDXDXDXDXDX@ DX@ DX@ DXDXDXDXDXDXDXDXDXDXDXDXDXDXDXDXDXDXDXDXDXDXDXDXDXDXDXDXDXDX",
"DXDXDXDXDXDXDXDXDXDXDXDXDXDXDXDXDXDXDXDXDXDXDXDXDXDXDXDXDX. #Xx.DXDXe t DXDXDXDXDXDXDXDXDXDXDXDXDXDXDXDXDXDXDXDXDXDXDXDXDXDXDXDX",
"DXDXDXDXDXDXDXDXDXDXDXDXDXDXDXDXDXDXDXDXDXDXDXDXDXDXDXDXDX@ %Xz.=X@ e e T @ @ DXDXDXDXDXDXDXDXDXDXDXDXDXDXDXDXDXDXDXDXDXDXDXDXDX",
"DXDXDXDXDXDXDXDXDXDXDXDXDXDXDXDXDXDXDXDXDXDXDXDXDXDXDXDX@ DXDX@ K.t e DXQ @ @ @ DXDXDXDXDXDXDXDXDXDXDXDXDXDXDXDXDXDXDXDXDXDXDXDX",
"DXDXDXDXDXDXDXDXDXDXDXDXDXDXDXDXDXDXDXDXDXDXDX@ @ @ DXDXDXDX@ 9.*.U y J.8 @ DXDXDXDXDXDXDXDXDXDXDXDXDXDXDXDXDXDXDXDXDXDXDXDXDXDX",
"DXDXDXDXDXDXDXDXDXDXDXDXDXDXDXDXDXDXDXDXDXDXDX$ $ @ @ @ @ @ @ 8 w.8 j.p.3 @ @ DXDXDXDXDXDXDXDXDXDXDXDXDXDXDXDXDXDXDXDXDXDXDXDXDX",
"DXDXDXDXDXDXDXDXDXDXDXDXDXDXDXDXDXDXDXDXDXDXDXDXDX@ @ _.@ DX@ 5 6 ;.7.}.@ . @ DXDXDXDXDXDXDXDXDXDXDXDXDXDXDXDXDXDXDXDXDXDXDXDXDX",
"DXDXDXDXDXDXDXDXDXDXDXDXDXDXDXDXDXDXDXDXDXDXDXDXDXe w @ e w @ 5 +.v.b.6.@ @ @ DXDXaXDXDXDXDXDXDXDXDXDXDXDXDXDXDXDXDXDXDXDXDXDXDX",
"DXDXDXDXDXDXDXDXDXDXDXDXDXDXDXDXDXDXDXDXDXDXDXDX$ w w K.G r y p ,.*.-.,.@ 3 3 J.$ DXDXDXDXDXDXDXDXDXDXDXDXDXDXDXDXDXDXDXDXDXDXDX",
"DXDXDXDXDXDXDXDXDXDXDXDXDXDXDXDXDXDXDXDXDXDXDXDX$ e w w 8 }.X.r Y 2.$.e @ $ $ w.DXDXDXDXDXDXDXDXDXDXDXDXDXDXDXDXDXDXDXDXDXDXDXDX",
"DXDXDXDXDXDXDXDXDXDXDXDXDXDXDXDXDXDXDXDXDXDXDXDXDXDX8 e %X>X,X& ,X0X).6XD.p % ^.hX# DXDXDXDXDXDXDXDXDXDXDXDXDXDXDXDXDXDXDXDXDXDX",
"DXDXDXDXDXDXDXDXDXDXDXDXDXDXDXDXDXDXDXDXDXDXDXDX@ DX@ ~ 3 ( 0 & W ,X*XR 9XlXNXCXCX_ DXDXDXDXDXDXDXDXDXDXDXDXDXDXDXDXDXDXDXDXDXDX",
"DXDXDXDXDXDXDXDXDXDXDXDXDXDXDXDXDXDXDXDXDXDXDXDX@ @ R.T.-.$ P 9 ! s.) p _ fXlXCXCXMXzXqXDXDXDXDXDXDXDXDXDXDXDXDXDXDXDXDXDXDXDXDX",
"DXDXDXDXDXDXDXDXDXDXDXDXDXDXDXDXDXDXDXDXDXDXDX$ Q.W.E.T.l.=.e.].$ 5 -Xs OXwXjXMXxXjXdXsX6X4XDXDXDXDXDXDXDXDXDXDXDXDXDXDXDXDXDXDX",
"DXDXDXDXDXDXDXDXDXDXDXDXDXDXDXDXDXDXDXDXDXDXDXDXDXB [ R.Y.6.h F [ 3 4 W eXOXdXlXqXo._ k j DX1XDXDXDXDXDXDXDXDXDXDXDXDXDXDXDXDXDX",
"DXDXDXDXDXDXDXDXDXDXDXDXDXDXDXDXDXDXDXDXDXDX$ e 7 g 1 { E.{ Z g { $ P 4 $ f aX6Xf & # DXDXDXDXDXDXDXDXDXDXDXDXDXDXDXDXDXDXDXDXDX",
"DXDXDXDXDXDXDXDXDXDXDXDXDXDXDXDXDXDXDXDX$ @ @ J.5 = C ( ( $ z A U.. . 4 '.f uXT @ @ DXDXDXDXDXDXDXDXDXDXDXDXDXDXDXDXDXDXDXDXDXDX",
"DXDXDXDXDXDXDXDXDXDXDXDXDXDXDXDXDXDXDXDX$ $ $ @ & * < 7XD I B - v X f v 6 j ).& $ @ DXDXDXDXDXDXDXDXDXDXDXDXDXDXDXDXDXDXDXDXDXDX",
"DXDXDXDXDXDXDXDXDXDXDXDXDXDXDXDXDXDXDXDX@ @ $ 6 P t : B =.f.B.c B b d.1 yXfXi.0.@ DXDXDXDXDXDXDXDXDXDXDXDXDXDXDXDXDXDXDXDXDXDXDX",
"DXDXDXDXDXDXDXDXDXDXDXDXDXDXDXDXDXDXDXDX$ $ # X + , d N e.i.f.3.B.v O o bXY @ ZX6 x.DX@ @ DXDXDXDXDXDXDXDXDXDXDXDXDXDXDXDXDXDXDX",
"DXDXDXDXDXDXDXDXDXDXDXDXDXDXDXDX3 DX$ $ w 1 7.#.B.S.B.@.B.uXdXB.5.&.C B v F K 8.Q @ $X@ @ DXDXDXDXDXDXDXDXDXDXDXDXDXDXDXDXDXDXDX",
"DXDXDXDXDXDXDXDXDXDXDXDXDXDX3 3 $ $ $ $ e a v p.M &.V :.B.xXBXkX<.$.C D D n ZXrX3 t :XK.@ @ DXDXDXDXDXDXDXDXDXDXDXDXDXDXDXDXDXDX",
"DXDXDXDXDXDXDXDXDXDXDXDXDXDXDX$ $ $ $ DXDX8 8 J.} ).M f.D.M.eXl.N.Z f.v = %XP. X4 :X3 @ @ DXDXDXDXDXDXDXDXDXDXDXDXDXDXDXDXDXDXDX",
"DXDXDXDXDXDXDXDXDXDXDXDXDXDX3 DX3 $ $ $ $ 8 8 *.n.m.=.#.+.v.r.g.d.= d # d uX8 4 # 4 $ J.@ DXDXDXDXDXDXDXDXDXDXDXDXDXDXDXDXDXDXDX",
"DXDXDXDXDXDXDXDXDXDXDXDXDXDX3 3 % $ ^.5 e 8 `.+.9.-.-., . f.g.,.= k r $ ZX^ e `.4 ^ $ R { DXDXDXDXDXDXDXDXDXDXDXDXDXDXDXDXDXDXDX",
"DXDXDXDXDXDXDXDXDXDXDXDXDXDXDXDX8 8 _.5 %  X$ :.#.$.V # r n d.; 4 4X4 9.9 e e 8 9 r.r.XX{ I.].DXDXDXDXDXDXDXDXDXDXDXDXDXDXDXDXDX",
"DXDXDXDXDXDXDXDXDXDXDXDXDXDXDXDX! =Xx.3 @ 0 d V C S 0 $ # , Z L * ` $ 5 . e $ U.kX4.7.[ { DX@ DXDXDXDXDXDXDXDXDXDXDXDXDXDXDXDXDX",
"DXDXDXDXDXDXDXDXDXDXDXDXDXDXDXDX8 H 9 /.6 $ & ; Y ` g % % * , @ '.: 4 9 $ e i Y.U.T.T.{ u 5 @ DXDXDXDXDXDXDXDXDXDXDXDXDXDXDXDXDX",
"DXDXDXDXDXDXDXDXDXDXDXDXDXDXDXDX8 8 DX3 3 6 5 3 3 )...5XV.q ; @ X.9 '.9 6 7 . W.R.9 W.wX$ $ @ @ DX@ DXDXDXDXDXDXDXDXDXDXDXDXDXDX",
"DXDXDXDXDXDXDXDXDXDXDXDXDXDX3 $ 3 3 $ $ 8 %XXX$ W !.$ k 1XzXNXCXCX` 8 9 K.@ Q.Q.W.@ %XQ.I.i @ @ @ DXDXDXDXDXDXDXDXDXDXDXDXDXDXDX",
"DXDXDXDXDXDXDXDXDXDXDXDXDXDX6 $ $ $ $ $ $ # ^.8 8.i.% $ ' qXxXCXCXMXzX5XY ;X8 8 9 ,XtX6 '.& @ @ . @ DXDXDXDXDXDXDXDXDXDXDXDXDXDX",
"DXDXDXDXDXDXDXDXDXDXDXDXDXDXDXDX3 $ 9 7 8 L i ZXr 4 vXe j 1XjXMXxXjXdXfX8Xo.r % $ 3 & 6 ( $ @ . @ @ DXDXDXDXDXDXDXDXDXDXDXDXDXDX",
"DXDXDXDXDXDXDXDXDXDXDXDXDXDXDXDX3 $ *XoXBXf .X8._ $ =X{.7 Y dXzX8XV.g.2.j.' B.j r P E 4 $ @ @ @ @ DXDXDXDXDXDXDXDXDXDXDXDXDXDXDX",
"DXDXDXDXDXDXDXDXDXDXDXDXDX+XQ.W.T.$ >.w *Xw -X& SX=Xy l.P.!.sXaXd 8 8 # wX< C W r r r 8 5 K.8 e @ DXDXDXDXDXDXDXDXDXDXDXDXDXDXDX",
"DXDXDXDXDXDXDXDXDXDXDXDXDX+XW.-XT.5.$ 5 t = % _ r <Xe @ t [.fXr 8 6 %.7.9.9. X8 @ % @ w.L.{.8 9 DXDXDXDXDXDXDXDXDXDXDXDXDXDXDXDX",
"DXDXDXDXDXDXDXDXDXDXDX5 DXDXDXR.U.e.O.5 $ $ $ 4X% % nX/.. [.o.^.8 . O.5.9.9.8.8.+   @ F H P.8 e DXDXDXDX@ @ DXDXDXDXDXDXDXDXDXDX",
"DXDXDXDXDXDXDXDXDX9 8 f i e 4 R.XXe.l.5.t $ 3 _ $ & 8.pX. l r e 8 8 =.a.-.<.J e : ) $ g.z w @ @ @ DXDX@ @ @ @ DXDXDXDXDXDXDXDXDX",
"DXDXDXDXDXDXDXDXDX6 5 3 8 r 0X0X| { [ R P $ @ _.. $ T 9. X1   @ w '.<.L.*.3 J.@ + s 0 $ z @ @ @ $ $ $ @ @ @ @ DXDXDXDXDXDXDXDXDX",
"DXDXDXDXDXDXDXDXDXDXDX4 e L.XXR.).2X3XI.6 $ X.8 3 3 K.G r d , . VXs.) 8 e $ . p < ,XtX>X3 4 4 e 3 e @ @ @ @ @ DXDXDXDXDXDXDXDXDX",
"DXDXDXDXDXDXDXDXDXDXDX9 {.3 8 '.'.k 5XlXNXCXCX` P.!.z.z.f q O n s 9 # 8 %X&X@   < =X>X:XK.L.3 < %X@ K.9 Q DXDXDXDXDXDXDXDXDXDXDX",
"DXDXDXDXDXDXDXDXDXK.! / 5 8 8 4 }.t _ qXxXCXCXMXlX2XY 0 & @ . > ; y # Z .X) J.+ Z .X.X.X9 6 G e $X3 9 $ @ DX@ DXDXDXDXDXDXDXDXDX",
"DXDXDXDXDXDXDXDXDXe 6 6 5 8 P.$ 7 @ f 2XjXMXxXjXdXsX6X).j @ @ @ N r % 9 L.% @ N $ w 3 7 6 K.8 w @ $ * e J.8 DXDXDXDXDXDXDXDXDXDX",
"DXDXDXDXDXDXe 8 7 =.6 9 H $ 3 5 5 }.@ ).sXlX8XC.` Y g k _ k [.% = %.U 5 H 3 + M $ $ 3 8 9 e ^ 5 < > p 6 7 e @ DXDX@ DXDXDXDXDXDX",
"DXDXDXDXDXDXDX8 8 6 :.8 B T $ $ 3 $ $ ].aX6XK a.q g.;X3 @ 6 6 i R 2 z # 3 '.> 1 & $ r .XJ.3 < c O . $ DX@ @ @ @ @ DXDXDXDXDXDXDX",
"DXDXDXDXDXDXw 8 8 @.b.u.6 T `.0 y }.$ <.iX].T = 7.9.K.@ t @ i $X/ * #.: = . c , @ . $ H ] @.x   < 4 h 1 @ @ @ @ @ @ @ DXDXDXDXDX",
"DXDXDXDXDXDXDXe 6 +.-.6.a  X5 0.,. X8 1Xo.$ % +.M.b.9.$ 8 a DXz.MXO Z G.c * +.: < f : V $.+ s.$ $ C ] N.F DX! DXDX@ @ DXDXDXDXDX",
"DXDXDXDXDXDXDXDXG =.O.O.P ~ 8.5 m.3 @ h.b './ f.1.e.-.3 9 @ w 6 J.E m %.*.;.G.N C F A.b % 8 w @ 3 @ 6._.8 8 6 @ @ DXDXDXDXDXDXDX",
"DXDXDXDXDXDXDXJ.$ '.4 P.e ZX5 ! $ .Xq Y , = : > c x ; J 0 0 = # + z s &.u.u.u.y.gX%.< X 4 ! @ @ @ ,.b.9.p 6 8 e % 6 DXDXDXDXDXDX",
"DXDX8 8 DXDX'.J 3 $ @X@ 8.6 5 3 wX.XXXh.# DXo - 1 > z z c V &.i.D.G.A.4.gXmXmXS.6.4.>.:.N N M c M c x x : < + + X X X           ",
"DXe 6 ~.^.5 3 $ K.9 $ 0.&XK.4 % .X*XOXs.d + O : > , m x c V N N O.+.&.4.S.mXBXjXt.4.+.O.N N M c x c x > : - * X X X   p @ $ 5 DX",
" X X}.T H 4 }.$ {.@ pXvX8 y 4 $ jXAXOX) 9 $ $ $ $ w .X{.8 e cX$ . o B 4.F.v.D.y.@.v t.%.s.3 bXAX6.! P 5 8 $ $ 3 < 6 4 9 7 DXDXDX",
"DXe 8  X6 ^.3 $X:X9 0.^.4 6 4 K 3 4 6 @ $ < $ $ @ VX].e e '.7 9 DXo :.w.;.i.7.@.A * S # ; c 1 8 ..6 P L.$ 8 $ 3 3 6 K.W 6 e w DX",
"DXe e DX8 DXDXc.8 9 nX/ 8 vX3 4 3 i J.8 $ $ 3 $ q K q e e $ e DX& B #.z q C @.O.i % 9 9 a.8 6 y v o 5 p 8 z.p 3 9 6 DXG ^.t e DX",
"DXDXDX8 DXDXDXDX7 DX8.8.H.DX4 H J {.% 8 3 3 %X4 tXi 4 e e e $ W m n ; I y M N ; P.# 6 `.J $ vXZXt & $ & i x.( 3 9 @ 9 e K.}.DXDX",
"DXDXDXDXDXDXDXDXDXK.e }.w DXDXW 8 4 E % 9 3 %XH 8 8 8 e 9 {.$ v z X # G U x M $ = 6 6 6 @ S.3 e 8 3 5 e 6 e w 3 6 DX6 DXDXDXDXDX",
"DXDXDXDXDXDXDXDXDXt w y ~ ! DXK $ e 9 9 4 3 ^ `.8 y 9 $ DX4 n : $ < w 3 @ O z @ $ 3 4 5.0.e _.L.5 9 % 8 _.e e 9 3 3 $ DXDXDXDXDX",
"DXDXDXDXDXDXDXDXDXe e t e DXDXDX% e DX6 9 9 }.6 K.e e 4 3 D T p L.5 J.DX$ q , 3 4 e 8 e }.H u DXDX3 3 $ e DX4 4 DX$ $ DXDXDXDXDX",
"DXDXDXDXDXDXDXDXDXDXe DXDXDXDXDXDXe e 6 3 % DXDXDXe e $ 1 q 8 9 5 }.9 DX@ 4 = 4 ^ 4 K.@ @ @ $ @ 3 3 $ $ @ DXDX5 DX$ DXDXDXDXDXDX",
"DXDXDXDXDXDXDXDXDXDXDXDXDXDXDXDXDXDXe 6 4 DX$ DXDX6 4 < % 8 8 J }.K.t DXDX8 I 6 K 9 6 DX@ @ DXDXDX3 $ DXDXDXDXDXDXDXDXDXDXDXDXDX",
"DXDXDXDXDXDXDXDXDXDXDXDXDXDXDXDXDXDXDX8 5 DXDXDXDX6 ; DX3 e e K.8 DXDXDXDX8 * G |.DX8 DXDXDXDXDX5 DX$ DXDXDXDXDXDXDXDXDXDXDXDXDX",
"DXDXDXDXDXDXDXDXDXDXDXDXDXDXDXDXDXDXDXDXDXDXDXDXDXDXDXDXDXDXDXDXe DXDXDXDXDXDXDXe H e DXDXDXDXDXDXDXDXDXDXDXDXDXDXDXDXDXDXDXDXDX",
"DXDXDXDXDXDXDXDXDXDXDXDXDXDXDXDXDXDXDXDXDXDXDXDXDXDXDXDXDXDXDXDXDXDXDXDXDXDXDXe t DXDXDXDXDXDXDXDXDXDXDXDXDXDXDXDXDXDXDXDXDXDXDX"
};
