/* XPM */
static char *result[] = {
/* columns rows colors chars-per-pixel */
"64 64 222 2 ",
"   c #071509",
".  c #081609",
"X  c #0A1B0B",
"o  c #061809",
"O  c #0F1F0E",
"+  c #281B0A",
"@  c #311906",
"#  c #0D230E",
"$  c #0F280F",
"%  c #072206",
"&  c #10250E",
"*  c #12290F",
"=  c #1B250E",
"-  c #0D2610",
";  c #0E2A11",
":  c #062B13",
">  c #102710",
",  c #112B11",
"<  c #1B2E11",
"1  c #0D3314",
"2  c #0C3A1B",
"3  c #113313",
"4  c #133B16",
"5  c #123A19",
"6  c #1C3C1B",
"7  c #1A3416",
"8  c #27250D",
"9  c #292A13",
"0  c #382413",
"q  c #233716",
"w  c #373D12",
"e  c #4D1110",
"r  c #6F1615",
"t  c #433A0E",
"y  c #682C18",
"u  c #752F19",
"i  c #693F27",
"p  c #0F411C",
"a  c #12431C",
"s  c #11491F",
"d  c #1D431D",
"f  c #21431F",
"g  c #3B4317",
"h  c #0C4A22",
"j  c #124C22",
"k  c #0D5327",
"l  c #115C2A",
"z  c #125425",
"x  c #244C22",
"c  c #274B23",
"v  c #295326",
"b  c #2C5A29",
"n  c #285225",
"m  c #345331",
"M  c #12642E",
"N  c #136D32",
"B  c #116730",
"V  c #137335",
"C  c #137C3A",
"Z  c #2E612B",
"A  c #34602C",
"S  c #346832",
"D  c #3C7237",
"F  c #286531",
"G  c #585413",
"H  c #4A4711",
"J  c #765919",
"K  c #62571D",
"L  c #42642A",
"P  c #4B6A2B",
"I  c #59762D",
"U  c #477B38",
"Y  c #547B32",
"T  c #50702D",
"R  c #7A7C2A",
"E  c #505550",
"W  c #8B0D12",
"Q  c #8D1113",
"!  c #841B1A",
"~  c #981718",
"^  c #910C10",
"/  c #A3151A",
"(  c #A7171B",
")  c #B7181B",
"_  c #872719",
"`  c #9B281B",
"'  c #9C3719",
"]  c #A7271B",
"[  c #BB2C1D",
"{  c #BA391C",
"}  c #AE2E20",
"|  c #C7171D",
" . c #D6191D",
".. c #D20E1F",
"X. c #ED1A1F",
"o. c #E6161F",
"O. c #ED0C17",
"+. c #C7221D",
"@. c #E82A1F",
"#. c #EE371E",
"$. c #D81720",
"%. c #E31821",
"&. c #EA1A22",
"*. c #C93724",
"=. c #EE2A24",
"-. c #81481E",
";. c #A5431A",
":. c #A6561B",
">. c #936B1D",
",. c #8D6A17",
"<. c #AB5A26",
"1. c #B54523",
"2. c #9D7827",
"3. c #AB7726",
"4. c #B16127",
"5. c #984E22",
"6. c #CD491F",
"7. c #F1501E",
"8. c #F47A1B",
"9. c #F6751C",
"0. c #EB701B",
"q. c #CC5227",
"w. c #EB532F",
"e. c #DE792D",
"r. c #EB6C2D",
"t. c #EB5A61",
"y. c #13853E",
"u. c #13883F",
"i. c #288239",
"p. c #47843F",
"a. c #5B8535",
"s. c #58822C",
"d. c #648C37",
"f. c #678C34",
"g. c #6B9338",
"h. c #689339",
"j. c #729D39",
"k. c #779A36",
"l. c #74A13A",
"z. c #7BAB3B",
"x. c #74A338",
"c. c #7EB23C",
"v. c #138940",
"b. c #168941",
"n. c #468440",
"m. c #4B8D45",
"M. c #4E9247",
"N. c #539B4C",
"B. c #518742",
"V. c #57A24F",
"C. c #59A452",
"Z. c #5CAA54",
"A. c #61AF57",
"S. c #62B359",
"D. c #66B95C",
"F. c #69BE5F",
"G. c #61B057",
"H. c #79AC53",
"J. c #7B8F7E",
"K. c #6AC05F",
"L. c #6CC362",
"P. c #6FCA65",
"I. c #71CB65",
"U. c #8C9431",
"Y. c #AA8124",
"T. c #B68927",
"R. c #B99228",
"E. c #B6922F",
"W. c #82B83D",
"Q. c #A48F19",
"!. c #D29417",
"~. c #F88518",
"^. c #F3991B",
"/. c #EF8F18",
"(. c #DFA71F",
"). c #F9A716",
"_. c #EEB51B",
"`. c #ECB116",
"'. c #F6B412",
"]. c #E6AC1A",
"[. c #C49624",
"{. c #D29D26",
"}. c #D7A22C",
"|. c #F0BE28",
" X c #EEAB2F",
".X c #FBC30D",
"XX c #FBD603",
"oX c #FAE204",
"OX c #F1C22A",
"+X c #F3CC36",
"@X c #F0CA38",
"#X c #84BB55",
"$X c #B9B448",
"%X c #D19C56",
"&X c #CD9645",
"*X c #C9A757",
"=X c #E4BC5D",
"-X c #F5B94B",
";X c #D7B068",
":X c #F2874A",
">X c #80C15D",
",X c #C8C55C",
"<X c #F3CB45",
"1X c #F8E75C",
"2X c #F5E66D",
"3X c #F7D46F",
"4X c #819CA1",
"5X c #90B0B9",
"6X c #F79C82",
"7X c #EECB8C",
"8X c #F8E199",
"9X c #FBEFAE",
"0X c #BADDF5",
"qX c #B4D5E7",
"wX c #BBE3F9",
"eX c #F8F8DA",
"rX c #FBF6CA",
"tX c white",
"yX c #F3F9FD",
"uX c #F3EEE3",
"iX c #FAD4D6",
"pX c None",
/* pixels */
"pXpXpXpXpXpXpXpXpXpXpXpXpXpXpXpXpXpXpXpXpXpXpXpXpXpXpXpXpXpXpXX pXpXpXpXpXpXpXpXpXpXpXpXpXpXpXpXpXpXpXpXpXpXpXpXpXpXpXpXpXpXpXpX",
"pXpXpXpXpXpXpXpXpXpXpXpXpXpXpXpXpXpXpXpXpXpXpXpXpXpXpXpXpXpXX X pXX pXpXpXpXpXpXpXpXpXpXpXpXpXpXpXpXpXpXpXpXpXpXpXpXpXpXpXpXpXpX",
"pXpXpXpXpXpXpXpXpXpXpXpXpXpXpXpXpXpXpXpXpXpXpXpXpXpXpXpXpXX pXX pXX pXpXpXpXpXpXpXpXpXpXpXpXpXpXpXpXpXpXpXpXpXpXpXpXpXpXpXpXpXpX",
"pXpXpXpXpXpXpXpXpXpXpXpXpXpXpXpXpXpXpXpXpXpXpXpXpXpXpXpXpX  !.9.pXpX1 5 pXpXpXpXpXpXpXpXpXpXpXpXpXpXpXpXpXpXpXpXpXpXpXpXpXpXpXpX",
"pXpXpXpXpXpXpXpXpXpXpXpXpXpXpXpXpXpXpXpXpXpXpXpXpXpXpXpXpXX /.8.).o 5 3 b X . pXpXpXpXpXpXpXpXpXpXpXpXpXpXpXpXpXpXpXpXpXpXpXpXpX",
"pXpXpXpXpXpXpXpXpXpXpXpXpXpXpXpXpXpXpXpXpXpXpXpXpXpXpXpXX pXpXX v.5 1 pXV X X X pXpXpXpXpXpXpXpXpXpXpXpXpXpXpXpXpXpXpXpXpXpXpXpX",
"pXpXpXpXpXpXpXpXpXpXpXpXpXpXpXpXpXpXpXpXpXpXpX# X X pXpXpXpXX &./ j s u.3 . pXpXpXpXpXpXpXpXpXpXpXpXpXpXpXpXpXpXpXpXpXpXpXpXpXpX",
"pXpXpXpXpXpXpXpXpXpXpXpXpXpXpXpXpXpXpXpXpXpXpXX X O X X X X X , [ 3 4.5.# X X pXpXpXpXpXpXpXpXpXpXpXpXpXpXpXpXpXpXpXpXpXpXpXpXpX",
"pXpXpXpXpXpXpXpXpXpXpXpXpXpXpXpXpXpXpXpXpXpXpXpXpXO X V.X pXX , , ) ..L.X   X pXpXpXpXpXpXpXpXpXpXpXpXpXpXpXpXpXpXpXpXpXpXpXpXpX",
"pXpXpXpXpXpXpXpXpXpXpXpXpXpXpXpXpXpXpXpXpXpXpXpXpX3 3 X 3 3 X > Q q.w. .X X X pXpXpXpXpXpXpXpXpXpXpXpXpXpXpXpXpXpXpXpXpXpXpXpXpX",
"pXpXpXpXpXpXpXpXpXpXpXpXpXpXpXpXpXpXpXpXpXpXpXpXO 1 3 v.j > 3 , ;.( [ ] . & & y.X pXpXpXpXpXpXpXpXpXpXpXpXpXpXpXpXpXpXpXpXpXpXpX",
"pXpXpXpXpXpXpXpXpXpXpXpXpXpXpXpXpXpXpXpXpXpXpXpXO 5 3 3 , L.n.X X ~ Q 4 . # & 1.pXpXpXpXpXpXpXpXpXpXpXpXpXpXpXpXpXpXpXpXpXpXpXpX",
"pXpXpXpXpXpXpXpXpXpXpXpXpXpXpXpXpXpXpXpXpXpXpXpXpXpX3 3 ^.@X-XO <X#XD 3 ` X # m.P.  pXpXpXpXpXpXpXpXpXpXpXpXpXpXpXpXpXpXpXpXpXpX",
"pXpXpXpXpXpXpXpXpXpXpXpXpXpXpXpXpXpXpXpXpXpXpXpXO pXX N < H > > V OX{.a K.:.1.i   X pXpXpXpXpXpXpXpXpXpXpXpXpXpXpXpXpXpXpXpXpXpX",
"pXpXpXpXpXpXpXpXpXpXpXpXpXpXpXpXpXpXpXpXpXpXpXpX# o j.d.) O l , y.>.J ; , 8X2X& X . pXpXpXpXpXpXpXpXpXpXpXpXpXpXpXpXpXpXpXpXpXpX",
"pXpXpXpXpXpXpXpXpXpXpXpXpXpXpXpXpXpXpXpXpXpXpX# c.H.U.g.7.) #.L.# ; {.w T.OX<X_.. X X o X pXpXpXpXpXpXpXpXpXpXpXpXpXpXpXpXpXpXpX",
"pXpXpXpXpXpXpXpXpXpXpXpXpXpXpXpXpXpXpXpXpXpXpXpXpXX x.g.g. .A L T & $ V %XT.!.T.X   X X X pXpXpXpXpXpXpXpXpXpXpXpXpXpXpXpXpXpXpX",
"pXpXpXpXpXpXpXpXpXpXpXpXpXpXpXpXpXpXpXpXpXpX# 3 , y.3 x.k.T P Y s.$ M * $ ; l X X X . pXpXpXpXpXpXpXpXpXpXpXpXpXpXpXpXpXpXpXpXpX",
"pXpXpXpXpXpXpXpXpXpXpXpXpXpXpXpXpXpXpXpXX - X v., 3 & z.f.# # a.g.- o * K.# h 6 # X pXpXpXpXpXpXpXpXpXpXpXpXpXpXpXpXpXpXpXpXpXpX",
"pXpXpXpXpXpXpXpXpXpXpXpXpXpXpXpXpXpXpXpXO X X X X * # #Xs.C X X [ X Z o * . b.X X X pXpXpXpXpXpXpXpXpXpXpXpXpXpXpXpXpXpXpXpXpXpX",
"pXpXpXpXpXpXpXpXpXpXpXpXpXpXpXpXpXpXpXpXX X - , l h O - ! D.O < y o 3 6 qXiX%.&.X pXpXpXpXpXpXpXpXpXpXpXpXpXpXpXpXpXpXpXpXpXpXpX",
"pXpXpXpXpXpXpXpXpXpXpXpXpXpXpXpXpXpXpXpX& X X X pXX h - w.~ b c     O X 0X; X yX* 9.pXX X pXpXpXpXpXpXpXpXpXpXpXpXpXpXpXpXpXpXpX",
"pXpXpXpXpXpXpXpXpXpXpXpXpXpXpXpX> pXO O 5 , $.O O ..S - : O >.  ! 8 - X * x n %.V X /.X X pXpXpXpXpXpXpXpXpXpXpXpXpXpXpXpXpXpXpX",
"pXpXpXpXpXpXpXpXpXpXpXpXpXpX* # - # - O 3 , 9 H.; ( - V - |.9X1XG 6 - v.y.* tX>X* 4 '.y.X X pXpXpXpXpXpXpXpXpXpXpXpXpXpXpXpXpXpX",
"pXpXpXpXpXpXpXpXpXpXpXpXpXpXpX# # # X pXpX, 3 y.p.I./ P.2.(.@X<X_.b , , , '.B.P., .X# X X pXpXpXpXpXpXpXpXpXpXpXpXpXpXpXpXpXpXpX",
"pXpXpXpXpXpXpXpXpXpXpXpXpXpX* pX# # - # O 3 3 / 7.e.%.-   *X=X=X*XO # , F yX3 & X * # y.X pXpXpXpXpXpXpXpXpXpXpXpXpXpXpXpXpXpXpX",
"pXpXpXpXpXpXpXpXpXpXpXpXpXpX& # - # M.> 3 3 A./ &.&.o.O   %X;X[.& # X # tXS 3 Z.* A # P Y pXpXpXpXpXpXpXpXpXpXpXpXpXpXpXpXpXpXpX",
"pXpXpXpXpXpXpXpXpXpXpXpXpXpXpXpX, , C., & I.X ' +.%.6.O 6 pXF.O & < > %.& 3 4 3 , #.#.R Y a.l.pXpXpXpXpXpXpXpXpXpXpXpXpXpXpXpXpX",
"pXpXpXpXpXpXpXpXpXpXpXpXpXpXpXpXC '.9.> X # X e ' ' < - X # M v = - O ,   1 X d.7X|  .T Y pXX pXpXpXpXpXpXpXpXpXpXpXpXpXpXpXpXpX",
"pXpXpXpXpXpXpXpXpXpXpXpXpXpXpXpX1 a , N., # X X q j 8 > , X X . S.@ , 3 X 3 6 j.g.h.g.I 2 ; X pXpXpXpXpXpXpXpXpXpXpXpXpXpXpXpXpX",
"pXpXpXpXpXpXpXpXpXpXpXpXpXpXpXpX, 3 pX> & , , # > S.X X & , X X f , G., 3 3   j.j.* j.,XX X . X pXX pXpXpXpXpXpXpXpXpXpXpXpXpXpX",
"pXpXpXpXpXpXpXpXpXpXpXpXpXpX& # # & # X , ^.U.# N b.&   , , - <X~., , ; v.X c.z.x.. ~.W.Y c X X X pXpXpXpXpXpXpXpXpXpXpXpXpXpXpX",
"pXpXpXpXpXpXpXpXpXpXpXpXpXpX- - # # # # - O M., %.o.# % , , H H J , L.3 3 }.; 3 ; <X3X; G.X X . X X pXpXpXpXpXpXpXpXpXpXpXpXpXpX",
"pXpXpXpXpXpXpXpXpXpXpXpXpXpXpXpX# # * 3 ; n q tX& # 0X3 : 3 h 1 X o ~ # y 8 X O # # # ; G , o   X   pXpXpXpXpXpXpXpXpXpXpXpXpXpX",
"pXpXpXpXpXpXpXpXpXpXpXpXpXpXpXpX# # {.T.eXq R.%.# X ).K.; 5 $ X o X  .! e.g r > # k M - X X X X X pXpXpXpXpXpXpXpXpXpXpXpXpXpXpX",
"pXpXpXpXpXpXpXpXpXpXpXpXpXW.z.j.g.# ` 1 {.3 R.O tX'.4 7.p.y.pXL.X < ; X ;X@ r V , # - ; ; v., 3 X pXpXpXpXpXpXpXpXpXpXpXpXpXpXpX",
"pXpXpXpXpXpXpXpXpXpXpXpXpXc.z.{.g.| , , 7 8 - O X oX3 X 3 I.pXX 3 * _ | %.&.P.3 - > X *.y.L.3 , pXpXpXpXpXpXpXpXpXpXpXpXpXpXpXpX",
"pXpXpXpXpXpXpXpXpXpXpX, pXpXpXj.f.@.^ : X - X X X X wXV.. P.X N.* o ^ | &.&.o. ./ X X u a U 3 3 pXpXpXpXX X pXpXpXpXpXpXpXpXpXpX",
"pXpXpXpXpXpXpXpXpX, , pX1 3 - j.U.#.7.| 4 X > X X X %.5X  X X 3 3 3 ( ;.) { j 3 *.J X <.e 1 X X X pXpXX . X X pXpXpXpXpXpXpXpXpX",
"pXpXpXpXpXpXpXpXpX, , , 3 ; z.$XI P L L z - X C.X # n %.I.X X   3 S.{ y./ & y.O X t = # e   X X # # # X X o . pXpXpXpXpXpXpXpXpX",
"pXpXpXpXpXpXpXpXpXpXpX, 3 y.U.j.u.< Y Y - X c > > > v.j & O . X eX>.J 3 4 % . u.!.+X1XOX# , * 3 # 5 X X X X X pXpXpXpXpXpXpXpXpX",
"pXpXpXpXpXpXpXpXpXpXpX, F.# , F.F.# a.d.# l B # B.b.8.9.# = = _.g $ X < /.~.o o [._.OX`.y.y., + ^.X y., V pXpXpXpXpXpXpXpXpXpXpX",
"pXpXpXpXpXpXpXpXpXb.C S * 3 , , F.3 # & L.# V N > > > O X X X 4 8 a X t R.J y.6 &XY.T.Y., , j 3 8.$ , # o pXX pXpXpXpXpXpXpXpXpX",
"pXpXpXpXpXpXpXpXpX3 3 , , 3 U # * X # D X 3 3 & > V - m.X X X X # q , , C & X & a 4 % * , b.3 3 X $ , 3 y.3 pXpXpXpXpXpXpXpXpXpX",
"pXpXpXpXpXpX3 3 1 ( 3 $ j # # , ; L.# n.# - 9 ( 7 -   X X X I.- # X y., a # # X # # $ * * 3 Z 3 a $ u., 3 3 X pXpXX pXpXpXpXpXpX",
"pXpXpXpXpXpXpX, , 3 ' & r v & * , # # C.# , ; <.< <.}.- X > - ; A b.# $ ; D.. C = $ d R.y.1 3 3 X & # pXX X . X X pXpXpXpXpXpXpX",
"pXpXpXpXpXpX3 3 3 ~ w.=.; b Z.< d L.# [ F.C.b =  .X.b.X 3 X 6 ~.S q 5 * , X # . X + $ h 2X[.. X + = 0 0 X X X X . X X pXpXpXpXpX",
"pXpXpXpXpXpXpX3 3 Q )  .9 P.* ..} P.1 E.$ # # ^ r.w.&.X 3 9 pX8.rX; I.V X # X X L.b + $ C : Y.X - r -.4.y pXC pXpXX X pXpXpXpXpX",
"pXpXpXpXpXpXpXpXa ] W W l B %.; e.- X 3.e L.D ;.[ @.[ - * % 1 , b.V P.p $ X X . L.Z.u.N.3 3 3 o - o  .C., , , X X pXpXpXpXpXpXpX",
"pXpXpXpXpXpXpXv.# A.& m.< tX, C - T.= 1 e 5 , , ~ Q - v.1 $ , 7 O 3 y.7 J.r #.A T a.i.3 * u.X o   { w.&.4 , 3 3 # , pXpXpXpXpXpX",
"pXpX3 < pXpXA.j # # Q.X %., , # =X+X1X|.X pXX O M X O 1 , u.# o 6 ; 1 d.;Xo.) L Y Y h.L.3 3 3 # _ ~ ) ) a D.3 > > , , * pXpXpXpX",
"pX3 ; m.M., > # u., :  .~.u., # R._.|.(.m   X X O X P.3 3 L.* X   X 5 U.g.d.{.T 3 8 , # $ 5 # o - ( ! e & 3 C & - , & y.3 1 3 pX",
"I.P.L.v s , P.# K.- 4X0X* 4 * # 7XuXY.K < X # - > 5 T.P.1 2 9X$ X X H.$Xj.O j.f.# # & ).XX* wXtX%.v.l , , # # # + , , , 3 pXpXpX",
"pX5 3 L., M.; ~.'.1 %.m.3 * , x # * , O X + # X - uXH.3 1 D.: $ pXX W.z.> D v.z.l.# 0.> , $ l , E , l y.# , # ; * , v.V , 3 3 pX",
"pX3 3 pX< pXpX0.3 < wXD 3 0X& & , 6 u., # - , # q w ; 3 3 # 1 pX# X . 5 3 - . X j > > > :.* : z %., # , , 8.1 ; , , pXa M.5 5 pX",
"pXpXpX3 pXpXpXpX: pX%.&.t.pX, j f L.X 3 , # ^.; 1X< , 5 1 3 # u.# # # M 5 O . O M.X > A.f # 0XyXa > , V n.8.H ; $ # * 3 y.L.pXpX",
"pXpXpXpXpXpXpXpXpXv.1 L.3 pXpXV , $ l # , , ^.a , 3 3 3 , L.# # & . # a l # X # a # 1 , % t.# 3 3 > , 3 3 3 3 > , pX3 pXpXpXpXpX",
"pXpXpXpXpXpXpXpXpX4 5 4 N C pXc & 3 3 , , * A Z.< a ; $ pX* , ; $ @ 1 & - X p X # # & | o.* V.C , > # 3 V.3 5 , # # X pXpXpXpXpX",
"pXpXpXpXpXpXpXpXpX5 3 3 3 pXpXpX# 3 pX, - , L., u.1 3 # > D.y.5 y., y.pX$ 3 * # # 3 3 3 K.s 5 pXpX> # # 3 pX, & pX# X pXpXpXpXpX",
"pXpXpXpXpXpXpXpXpXpX5 pXpXpXpXpXpX4 3 , , # pXpXpX1 3 # 3 , 3 * ; L., pXX $ * * S * y.X # o # X , > & X X pXpX, pX# pXpXpXpXpXpX",
"pXpXpXpXpXpXpXpXpXpXpXpXpXpXpXpXpXpX3 , , pX# pXpX, , # # 3 , c L.u.5 pXpX, u., c , , pXX X pXpXpX> # pXpXpXpXpXpXpXpXpXpXpXpXpX",
"pXpXpXpXpXpXpXpXpXpXpXpXpXpXpXpXpXpXpX, , pXpXpXpX, , pX& 3 3 u.3 pXpXpXpX3 3 a I.pX3 pXpXpXpXpX; pX# pXpXpXpXpXpXpXpXpXpXpXpXpX",
"pXpXpXpXpXpXpXpXpXpXpXpXpXpXpXpXpXpXpXpXpXpXpXpXpXpXpXpXpXpXpXpX4 pXpXpXpXpXpXpX3 a 3 pXpXpXpXpXpXpXpXpXpXpXpXpXpXpXpXpXpXpXpXpX",
"pXpXpXpXpXpXpXpXpXpXpXpXpXpXpXpXpXpXpXpXpXpXpXpXpXpXpXpXpXpXpXpXpXpXpXpXpXpXpX5 5 pXpXpXpXpXpXpXpXpXpXpXpXpXpXpXpXpXpXpXpXpXpXpX"
};
